<?xml version="1.0" standalone="no"?>
<!DOCTYPE svg PUBLIC "-//W3C//DTD SVG 20010904//EN"
 "http://www.w3.org/TR/2001/REC-SVG-20010904/DTD/svg10.dtd">
<svg version="1.0" xmlns="http://www.w3.org/2000/svg"
 width="428.000000pt" height="528.000000pt" viewBox="0 0 428.000000 528.000000"
 preserveAspectRatio="xMidYMid meet">

<g transform="translate(0.000000,528.000000) scale(0.100000,-0.100000)"
fill="#000000" stroke="none">
<path d="M1109 5271 c-48 -10 -93 -43 -113 -85 -13 -28 -16 -69 -16 -220 l0
-186 -278 0 c-301 0 -343 -5 -448 -57 -62 -30 -148 -108 -186 -168 -14 -22
-35 -67 -47 -100 l-22 -60 3 -2020 3 -2020 34 -70 c74 -151 223 -256 392 -275
113 -13 3285 -13 3398 0 202 23 373 168 423 359 16 61 17 206 17 2021 1 2148
5 2003 -59 2130 -38 75 -128 166 -201 202 -104 52 -149 58 -451 58 l-278 0 0
186 c0 213 -7 238 -73 282 l-41 27 -1010 1 c-556 1 -1027 -1 -1047 -5z m1841
-571 l0 -250 -820 0 -820 0 0 250 0 250 820 0 820 0 0 -250z m-1968 -362 c3
-100 6 -117 27 -147 13 -18 42 -42 65 -52 39 -18 88 -19 1056 -19 968 0 1017
1 1056 19 23 10 52 34 65 52 21 30 24 47 27 147 l4 113 278 -3 c263 -3 280 -4
306 -24 15 -11 37 -33 48 -48 l21 -27 3 -1946 2 -1945 -22 -39 c-12 -22 -38
-50 -58 -62 l-35 -22 -1695 0 -1695 0 -35 22 c-20 12 -46 40 -58 61 l-22 40 0
1930 c0 1343 3 1939 11 1959 6 15 20 39 32 52 44 47 64 50 349 51 l266 0 4
-112z"/>
<path d="M3390 3289 c-14 -5 -413 -398 -887 -872 l-863 -862 -287 287 c-209
208 -296 288 -318 293 -16 4 -36 9 -44 11 -27 8 -96 -19 -127 -50 -44 -44 -61
-103 -45 -159 11 -36 64 -94 364 -394 193 -194 366 -360 383 -368 40 -19 95
-19 137 -1 19 8 420 403 964 947 1010 1013 955 951 940 1045 -15 94 -128 158
-217 123z"/>
</g>
</svg>
