<svg fill="#000000" xmlns="http://www.w3.org/2000/svg"  viewBox="0 0 50 50" width="50px" height="50px"><path d="M 28.875 0 C 28.855469 0.0078125 28.832031 0.0195313 28.8125 0.03125 L 0.8125 5.34375 C 0.335938 5.433594 -0.0078125 5.855469 0 6.34375 L 0 43.65625 C -0.0078125 44.144531 0.335938 44.566406 0.8125 44.65625 L 28.8125 49.96875 C 29.101563 50.023438 29.402344 49.949219 29.632813 49.761719 C 29.859375 49.574219 29.996094 49.296875 30 49 L 30 44 L 47 44 C 48.09375 44 49 43.09375 49 42 L 49 8 C 49 6.90625 48.09375 6 47 6 L 30 6 L 30 1 C 30.003906 0.710938 29.878906 0.4375 29.664063 0.246094 C 29.449219 0.0546875 29.160156 -0.0351563 28.875 0 Z M 28 2.1875 L 28 6.6875 C 27.941406 6.882813 27.941406 7.085938 28 7.28125 L 28 42.8125 C 27.972656 42.945313 27.972656 43.085938 28 43.21875 L 28 47.8125 L 2 42.84375 L 2 7.15625 Z M 30 8 L 47 8 L 47 42 L 30 42 L 30 37 L 44 37 L 44 35 L 30 35 L 30 29 L 44 29 L 44 27 L 30 27 L 30 22 L 44 22 L 44 20 L 30 20 L 30 15 L 44 15 L 44 13 L 30 13 Z M 4.625 15.65625 L 8.4375 34.34375 L 12.1875 34.34375 L 14.65625 22.375 C 14.769531 21.824219 14.875 21.101563 14.9375 20.25 L 14.96875 20.25 C 14.996094 21.023438 15.058594 21.75 15.1875 22.375 L 17.59375 34.34375 L 21.21875 34.34375 L 25.0625 15.65625 L 21.75 15.65625 L 19.75 28.125 C 19.632813 28.828125 19.558594 29.53125 19.53125 30.21875 L 19.5 30.21875 C 19.433594 29.339844 19.367188 28.679688 19.28125 28.21875 L 16.90625 15.65625 L 13.40625 15.65625 L 10.78125 28.0625 C 10.613281 28.855469 10.496094 29.582031 10.46875 30.25 L 10.40625 30.25 C 10.367188 29.355469 10.308594 28.625 10.21875 28.09375 L 8.1875 15.65625 Z"/></svg>