<?xml version="1.0" standalone="no"?>
<!DOCTYPE svg PUBLIC "-//W3C//DTD SVG 20010904//EN"
 "http://www.w3.org/TR/2001/REC-SVG-20010904/DTD/svg10.dtd">
<svg version="1.0" xmlns="http://www.w3.org/2000/svg"
 width="371.000000pt" height="339.000000pt" viewBox="0 0 371.000000 339.000000"
 preserveAspectRatio="xMidYMid meet">

<g transform="translate(0.000000,339.000000) scale(0.100000,-0.100000)"
fill="#000000" stroke="none">
<path d="M1748 3380 c-132 -24 -254 -77 -342 -150 -26 -22 -349 -335 -716
-695 -729 -715 -704 -686 -663 -757 10 -18 33 -41 51 -51 71 -42 44 -65 769
646 366 359 689 670 719 692 78 58 162 88 265 93 104 5 171 -8 258 -51 55 -26
102 -67 276 -237 116 -113 422 -413 680 -666 259 -253 481 -468 495 -477 51
-35 126 -12 154 47 22 46 20 67 -6 105 -32 44 -1330 1317 -1392 1365 -63 48
-171 100 -251 121 -71 19 -231 27 -297 15z"/>
<path d="M498 1661 l-33 -29 -3 -543 c-2 -515 -2 -547 18 -622 42 -168 156
-310 310 -386 148 -72 123 -71 1068 -71 940 0 931 -1 1072 68 152 74 280 240
315 407 22 105 22 1103 0 1145 -21 40 -53 60 -98 60 -31 0 -46 -7 -73 -34
l-34 -34 0 -504 c0 -279 -4 -530 -10 -562 -21 -128 -100 -234 -218 -289 l-67
-32 -880 0 -880 0 -60 24 c-83 33 -183 133 -216 216 l-24 60 -5 548 -5 549
-33 29 c-45 40 -99 40 -144 0z"/>
</g>
</svg>
