<svg xmlns="http://www.w3.org/2000/svg" viewBox="0 0 463.21 373.61">
  <defs>
    <style>
      .cls-1 {
        stroke: #000;
        stroke-miterlimit: 10;
        stroke-width: 4px;
      }
    </style>
  </defs>
  <g id="Layer_2" data-name="Layer 2">
    <g id="Layer_1-2" data-name="Layer 1">
      <path class="cls-1" d="M231.57,2a19.76,19.76,0,0,0-10.33,3.5L8.44,173.5C3,178.93-.86,190.62,4.77,197.83s17.48,8.17,24.32,2.1L231.57,40.16,434.05,199.93c6.84,6.08,18.94,5.3,24.33-2.1,4.72-6.5,3.56-18.92-3.68-24.33L241.9,5.5A17.13,17.13,0,0,0,231.58,2ZM97.17,166l-33.6,26.6V354.81h0a16.8,16.8,0,0,0,16.8,16.8h106.4a16.8,16.8,0,0,0,16.8-16.8v-67.2a28,28,0,0,1,56,0v67.2a16.8,16.8,0,0,0,16.8,16.8h106.4a16.8,16.8,0,0,0,16.8-16.8V192.58L366,166V338h-72.8V287.6a61.61,61.61,0,0,0-123.21,0V338H97.16V166Z"/>
    </g>
  </g>
</svg>
