<?xml version="1.0" standalone="no"?>
<!DOCTYPE svg PUBLIC "-//W3C//DTD SVG 20010904//EN"
 "http://www.w3.org/TR/2001/REC-SVG-20010904/DTD/svg10.dtd">
<svg version="1.0" xmlns="http://www.w3.org/2000/svg"
 width="454.000000pt" height="400.000000pt" viewBox="0 0 454.000000 400.000000"
 preserveAspectRatio="xMidYMid meet">

<g transform="translate(0.000000,400.000000) scale(0.100000,-0.100000)"
fill="#000000" stroke="none">
<path d="M1540 3975 c-481 -82 -889 -385 -1109 -824 -56 -110 -115 -291 -137
-416 -24 -136 -23 -376 0 -510 35 -196 122 -415 230 -578 23 -35 35 -61 30
-69 -5 -7 -120 -145 -256 -305 -136 -161 -248 -295 -248 -298 0 -10 1750 -5
1848 5 347 37 679 198 938 455 61 60 136 144 167 185 295 400 369 874 211
1348 -172 520 -626 909 -1169 1002 -137 23 -384 26 -505 5z m420 -220 c598
-90 1042 -564 1100 -1173 59 -627 -423 -1237 -1077 -1362 -103 -19 -137 -20
-779 -18 l-672 3 80 95 c44 52 115 138 158 191 l79 97 -60 73 c-194 238 -292
512 -293 819 0 155 14 245 56 380 123 387 429 704 808 838 76 27 194 55 275
65 73 10 238 6 325 -8z"/>
<path d="M3404 2899 c3 -13 15 -75 26 -138 11 -63 21 -115 23 -116 159 -102
280 -211 380 -344 170 -226 257 -487 257 -771 -1 -302 -94 -566 -287 -811 -35
-43 -63 -82 -63 -85 0 -3 70 -90 155 -192 85 -102 155 -190 155 -195 0 -5
-298 -7 -682 -4 -647 4 -688 5 -776 25 -309 69 -561 218 -768 455 l-67 77
-134 0 -134 0 42 -62 c238 -353 591 -593 1018 -690 94 -22 112 -22 1040 -25
907 -4 944 -3 930 14 -11 14 -432 520 -485 583 -11 13 -5 27 32 85 156 240
230 477 241 765 16 439 -136 822 -452 1135 -116 116 -222 194 -360 267 -92 48
-98 50 -91 27z"/>
</g>
</svg>
