<svg xmlns="http://www.w3.org/2000/svg" viewBox="0 0 361.76 457.69">
  <g id="Layer_2" data-name="Layer 2">
    <g id="Layer_1-2" data-name="Layer 1">
      <path d="M338.25,84H293.44v26.82h38.08v321H30.24v-321H68.32V84H23.52C10.08,84,0,93.25,0,103.42V438.27c0,11.1,11.2,19.42,23.52,19.42H338.24c13.44,0,23.52-9.25,23.52-19.42V103.42c0-10.17-11.2-19.42-23.52-19.42Z"/>
      <path d="M278.89,61.6H208.33c5.6-5.6,9-14.56,9-24.64a37,37,0,1,0-73.92,0,39.14,39.14,0,0,0,9,24.64H81.77v67.2H278.89ZM117.61,107.52A12.32,12.32,0,1,1,129.93,95.2,12.43,12.43,0,0,1,117.61,107.52ZM180.32,61.6A24.86,24.86,0,0,1,155.68,37,24.65,24.65,0,0,1,205,37,24.86,24.86,0,0,1,180.32,61.6ZM243,107.52A12.32,12.32,0,1,1,255.36,95.2C254.25,101.92,249.77,107.52,243,107.52Z"/>
      <path d="M60.49,154.24h240.8v29.13H60.49Z"/>
      <path d="M60.49,260.78h240.8v29.13H60.49Z"/>
      <path d="M60.49,367.32h240.8v29.13H60.49Z"/>
    </g>
  </g>
</svg>
