<?xml version="1.0" standalone="no"?>
<!DOCTYPE svg PUBLIC "-//W3C//DTD SVG 20010904//EN"
 "http://www.w3.org/TR/2001/REC-SVG-20010904/DTD/svg10.dtd">
<svg version="1.0" xmlns="http://www.w3.org/2000/svg"
 width="434.000000pt" height="468.000000pt" viewBox="0 0 434.000000 468.000000"
 preserveAspectRatio="xMidYMid meet">

<g transform="translate(0.000000,468.000000) scale(0.100000,-0.100000)"
fill="#000000" stroke="none">
<path d="M609 4665 c-272 -55 -486 -250 -580 -530 l-24 -70 -3 -1675 c-3
-1816 -4 -1752 51 -1890 41 -101 88 -171 172 -255 84 -84 154 -131 255 -172
131 -53 141 -53 1109 -53 1016 0 944 -6 989 81 36 70 17 138 -51 179 -31 19
-58 20 -927 20 -985 0 -952 -2 -1071 61 -70 38 -157 126 -193 197 -59 116 -56
20 -56 1792 0 1790 -4 1679 61 1801 38 70 126 157 197 193 116 59 41 56 1572
55 1295 0 1410 -2 1471 -17 128 -34 245 -128 302 -246 56 -115 57 -119 57
-1010 0 -803 0 -819 20 -851 52 -85 181 -83 237 2 17 25 18 83 18 893 l0 865
-23 79 c-78 268 -269 461 -537 542 -57 17 -142 19 -1520 20 -1183 2 -1473 0
-1526 -11z"/>
<path d="M862 3590 c-94 -57 -94 -183 0 -240 32 -19 53 -20 909 -20 l876 0 34
23 c90 60 88 181 -4 237 -31 19 -57 20 -907 20 -856 0 -876 -1 -908 -20z"/>
<path d="M892 2770 c-43 -10 -90 -55 -101 -97 -16 -58 15 -130 69 -158 26 -13
163 -15 1191 -13 l1161 3 33 37 c40 43 50 74 40 125 -8 46 -50 88 -101 102
-46 13 -2238 14 -2292 1z"/>
<path d="M3825 2116 c-68 -22 -126 -56 -167 -99 -78 -83 -890 -1220 -925
-1296 -77 -165 -107 -385 -67 -503 32 -97 128 -168 228 -168 57 0 214 55 299
105 145 85 181 128 649 777 240 332 446 623 459 648 21 39 24 59 24 150 0 93
-3 112 -27 162 -83 177 -298 279 -473 224z m179 -297 c40 -35 55 -84 35 -120
-6 -13 -203 -288 -436 -611 -284 -393 -441 -602 -476 -633 -51 -45 -176 -115
-204 -115 -12 0 -13 11 -7 57 7 64 38 172 62 218 24 48 841 1177 873 1208 43
40 105 38 153 -4z"/>
</g>
</svg>
