<svg fill="#000000" xmlns="http://www.w3.org/2000/svg"  viewBox="0 0 50 50" width="50px" height="50px"><path d="M 28.875 0 C 28.855469 0.0078125 28.832031 0.0195313 28.8125 0.03125 L 0.8125 5.34375 C 0.335938 5.433594 -0.0078125 5.855469 0 6.34375 L 0 43.65625 C -0.0078125 44.144531 0.335938 44.566406 0.8125 44.65625 L 28.8125 49.96875 C 29.101563 50.023438 29.402344 49.949219 29.632813 49.761719 C 29.859375 49.574219 29.996094 49.296875 30 49 L 30 44 L 47 44 C 48.09375 44 49 43.09375 49 42 L 49 8 C 49 6.90625 48.09375 6 47 6 L 30 6 L 30 1 C 30.003906 0.710938 29.878906 0.4375 29.664063 0.246094 C 29.449219 0.0546875 29.160156 -0.0351563 28.875 0 Z M 28 2.1875 L 28 6.6875 C 27.941406 6.882813 27.941406 7.085938 28 7.28125 L 28 42.8125 C 27.972656 42.945313 27.972656 43.085938 28 43.21875 L 28 47.8125 L 2 42.84375 L 2 7.15625 Z M 30 8 L 47 8 L 47 42 L 30 42 L 30 37 L 40 37 L 40 35 L 30 35 L 30 29.4375 C 30.921875 29.804688 31.949219 30 33 30 C 37.40625 30 41 26.40625 41 22 L 41 21 L 34 21 L 34 14 L 33 14 C 31.941406 14 30.929688 14.191406 30 14.5625 Z M 35 11 L 35 20 L 44 20 L 44 19 C 44 14.59375 40.40625 11 36 11 Z M 37 13.1875 C 39.492188 13.617188 41.382813 15.507813 41.8125 18 L 37 18 Z M 8.15625 15.65625 L 8.15625 34.375 L 12.375 34.375 L 12.375 27.9375 L 14.375 27.9375 C 16.636719 27.9375 18.460938 27.347656 19.8125 26.1875 C 21.164063 25.027344 21.84375 23.503906 21.84375 21.625 C 21.84375 17.648438 19.464844 15.65625 14.75 15.65625 Z M 32 16.25 L 32 23 L 38.8125 23 C 38.324219 25.828125 35.972656 28 33 28 C 31.953125 28 30.980469 27.71875 30.125 27.25 C 30.085938 27.226563 30.042969 27.207031 30 27.1875 L 30 16.8125 C 30.03125 16.792969 30.0625 16.773438 30.09375 16.75 C 30.660156 16.433594 31.339844 16.367188 32 16.25 Z M 12.375 18.90625 L 14.03125 18.90625 C 16.273438 18.90625 17.40625 19.859375 17.40625 21.78125 C 17.40625 23.746094 16.273438 24.71875 14.03125 24.71875 L 12.375 24.71875 Z"/></svg>