<svg xmlns="http://www.w3.org/2000/svg" viewBox="0 0 302.78 466.77">
  <g id="Layer_2" data-name="Layer 2">
    <g id="Layer_1-2" data-name="Layer 1">
      <g>
        <path d="M273.47,466.67a29.36,29.36,0,0,0,29.31-29.31v-408A29.36,29.36,0,0,0,273.47,0H29.31A29.36,29.36,0,0,0,0,29.31V437.46a29.36,29.36,0,0,0,29.31,29.31H273.47ZM18.67,437.36v-408A10.64,10.64,0,0,1,29.31,18.67H273.47a10.64,10.64,0,0,1,10.64,10.64V437.46a10.64,10.64,0,0,1-10.64,10.64H29.31a10.77,10.77,0,0,1-10.64-10.73Z"/>
        <path d="M167.16,414.88H135.52a9.33,9.33,0,0,0,0,18.66h31.64a9.33,9.33,0,0,0,0-18.66Z"/>
        <path d="M89.32,58.62h88.1a9.34,9.34,0,1,0,0-18.67H89.32a9.34,9.34,0,0,0,0,18.67Z"/>
        <path d="M206.93,55.91l1.4,1.12a10,10,0,0,0,3.36,1.4,13,13,0,0,0,1.86.18,11.93,11.93,0,0,0,1.78-.18,13.4,13.4,0,0,0,1.77-.56,8.88,8.88,0,0,0,1.59-.84,10.22,10.22,0,0,0,1.4-1.12,9.54,9.54,0,0,0,2-3.08,8.75,8.75,0,0,0,0-7.09,7.8,7.8,0,0,0-2-3.08,9.64,9.64,0,0,0-13.16,0,9,9,0,0,0-2.06,3.08,10,10,0,0,0,0,7.09,11.3,11.3,0,0,0,2.06,3.08Z"/>
        <path d="M54.6,152.61a9.15,9.15,0,0,0,6.62,2.7,9.56,9.56,0,0,0,6.63-2.7L98,122.46A9.31,9.31,0,0,0,84.84,109.3L61.32,132.82l-6.54-6.54a9.31,9.31,0,0,0-13.16,13.16Z"/>
        <path d="M113,130.86a9.36,9.36,0,0,0,9.33,9.33H254.61a9.33,9.33,0,0,0,0-18.66H122.36A9.36,9.36,0,0,0,113,130.86Z"/>
        <path d="M54.6,220.83a9.15,9.15,0,0,0,6.62,2.7,9.56,9.56,0,0,0,6.63-2.7L98,190.68a9.31,9.31,0,0,0-13.16-13.16L61.32,201l-6.54-6.54a9.31,9.31,0,1,0-13.16,13.16Z"/>
        <path d="M254.62,189.85H122.37a9.33,9.33,0,0,0,0,18.66H254.62a9.33,9.33,0,0,0,0-18.66Z"/>
        <path d="M54.6,289.15a9.15,9.15,0,0,0,6.62,2.7,9.56,9.56,0,0,0,6.63-2.7L98,259a9.31,9.31,0,0,0-13.16-13.16L61.32,269.36l-6.54-6.54A9.31,9.31,0,1,0,41.62,276Z"/>
        <path d="M254.62,258.17H122.37a9.33,9.33,0,0,0,0,18.66H254.62a9.33,9.33,0,0,0,0-18.66Z"/>
        <path d="M54.6,357.47a9.15,9.15,0,0,0,6.62,2.7,9.56,9.56,0,0,0,6.63-2.7L98,327.32a9.31,9.31,0,0,0-13.16-13.16L61.32,337.68l-6.54-6.54A9.31,9.31,0,0,0,41.62,344.3Z"/>
        <path d="M254.62,326.49H122.37a9.33,9.33,0,0,0,0,18.66H254.62a9.33,9.33,0,0,0,0-18.66Z"/>
      </g>
    </g>
  </g>
</svg>
