<?xml version="1.0" standalone="no"?>
<!DOCTYPE svg PUBLIC "-//W3C//DTD SVG 20010904//EN"
 "http://www.w3.org/TR/2001/REC-SVG-20010904/DTD/svg10.dtd">
<svg version="1.0" xmlns="http://www.w3.org/2000/svg"
 width="516.000000pt" height="316.000000pt" viewBox="0 0 516.000000 316.000000"
 preserveAspectRatio="xMidYMid meet">

<g transform="translate(0.000000,316.000000) scale(0.100000,-0.100000)"
fill="#000000" stroke="none">
<path d="M3375 2999 c-817 -109 -1192 -164 -1219 -176 -76 -34 -134 -116 -138
-195 -1 -24 1 -76 6 -117 l8 -74 -28 5 c-16 3 -369 54 -784 114 -546 78 -766
106 -793 100 -50 -9 -112 -66 -131 -119 -24 -68 -280 -1876 -272 -1921 10 -50
76 -123 125 -135 20 -6 351 -55 736 -111 385 -55 791 -114 903 -130 241 -36
263 -36 320 -9 73 36 90 74 118 256 13 87 27 174 31 193 4 25 15 -32 39 -210
18 -135 38 -261 43 -281 27 -92 127 -169 219 -169 54 0 2349 304 2412 320 90
22 159 94 181 188 10 45 -301 2411 -327 2479 -32 87 -133 154 -228 152 -23 -1
-572 -72 -1221 -160z m1248 -51 c13 -11 45 -228 172 -1178 86 -641 155 -1178
153 -1194 -2 -16 -10 -33 -18 -37 -8 -5 -545 -79 -1194 -165 -989 -131 -1180
-154 -1192 -143 -9 10 -64 393 -169 1175 -85 639 -155 1175 -155 1192 0 17 5
34 12 38 9 6 2281 317 2359 323 8 0 23 -5 32 -11z m-3348 -559 c424 -61 773
-113 776 -117 4 -4 36 -224 71 -489 l64 -483 -67 -462 c-37 -255 -68 -464 -68
-465 -3 -10 -165 11 -902 117 -936 135 -945 137 -959 145 -6 3 -10 17 -10 29
0 13 58 428 130 922 135 932 134 928 178 918 9 -2 363 -54 787 -115z"/>
<path d="M3420 2453 c-54 -9 -158 -46 -210 -76 -79 -44 -191 -159 -225 -232
-37 -79 -45 -192 -18 -245 26 -51 76 -80 135 -80 98 0 146 39 183 148 45 133
78 171 166 192 140 34 246 -23 257 -139 8 -84 -15 -125 -144 -262 -142 -151
-169 -201 -169 -310 0 -67 3 -80 28 -112 35 -46 74 -67 127 -67 88 0 143 45
167 136 22 87 31 99 160 230 65 66 132 144 150 174 44 74 67 169 59 240 -30
264 -226 412 -541 408 -55 0 -111 -3 -125 -5z"/>
<path d="M3556 1145 c-141 -50 -179 -228 -71 -331 98 -95 249 -73 314 45 62
113 1 256 -124 290 -51 14 -71 13 -119 -4z"/>
<path d="M1128 2091 c-154 -50 -258 -163 -258 -282 0 -65 54 -109 132 -109 55
0 77 15 133 95 60 83 104 103 191 85 83 -17 124 -59 124 -126 0 -84 -30 -116
-197 -212 -158 -92 -215 -228 -132 -312 65 -65 156 -46 210 43 34 57 46 66
186 144 95 53 162 113 195 175 20 37 23 58 23 143 0 92 -2 104 -29 153 -55 99
-158 170 -301 207 -80 20 -206 19 -277 -4z"/>
<path d="M1116 1100 c-42 -13 -95 -68 -107 -112 -27 -103 77 -216 178 -192 71
17 133 89 133 154 0 39 -39 108 -73 129 -40 24 -93 33 -131 21z"/>
</g>
</svg>
