<?xml version="1.0" standalone="no"?>
<!DOCTYPE svg PUBLIC "-//W3C//DTD SVG 20010904//EN"
 "http://www.w3.org/TR/2001/REC-SVG-20010904/DTD/svg10.dtd">
<svg version="1.0" xmlns="http://www.w3.org/2000/svg"
 width="368.000000pt" height="485.000000pt" viewBox="0 0 368.000000 485.000000"
 preserveAspectRatio="xMidYMid meet">

<g transform="translate(0.000000,485.000000) scale(0.100000,-0.100000)"
fill="#000000" stroke="none">
<path d="M1616 4694 c-275 -37 -546 -145 -777 -310 -113 -80 -310 -279 -389
-391 -219 -313 -320 -643 -320 -1046 0 -287 61 -518 238 -902 267 -582 811
-1391 1163 -1730 216 -208 302 -229 471 -115 190 127 508 502 809 952 378 565
635 1090 721 1473 29 128 36 417 14 581 -65 494 -331 935 -725 1201 -354 239
-792 344 -1205 287z m525 -213 c472 -100 847 -387 1059 -811 58 -117 102 -242
131 -380 20 -91 23 -135 23 -335 1 -229 0 -231 -32 -348 -65 -238 -226 -598
-412 -922 -113 -197 -341 -543 -482 -731 -215 -287 -444 -535 -551 -598 l-48
-28 -37 24 c-244 162 -764 869 -1106 1503 -170 317 -306 661 -342 865 -22 130
-14 432 15 571 139 648 644 1117 1301 1209 105 14 371 4 481 -19z"/>
</g>
</svg>
