<?xml version="1.0" standalone="no"?>
<!DOCTYPE svg PUBLIC "-//W3C//DTD SVG 20010904//EN"
 "http://www.w3.org/TR/2001/REC-SVG-20010904/DTD/svg10.dtd">
<svg version="1.0" xmlns="http://www.w3.org/2000/svg"
 width="1108.000000pt" height="1280.000000pt" viewBox="0 0 1108.000000 1280.000000"
 preserveAspectRatio="xMidYMid meet">
<metadata>
Created by potrace 1.15, written by Peter Selinger 2001-2017
</metadata>
<g transform="translate(0.000000,1280.000000) scale(0.100000,-0.100000)"
fill="#000000" stroke="none">
<path d="M5410 12069 c-140 -4 -282 -5 -315 -2 -63 5 -270 -29 -415 -68 -77
-20 -243 -81 -270 -99 -27 -17 11 -12 86 13 46 15 82 21 109 17 l40 -5 -43
-18 c-24 -9 -71 -21 -105 -26 -72 -11 -194 -52 -240 -80 -18 -11 -85 -40 -149
-65 -242 -93 -337 -141 -319 -159 7 -7 47 5 126 37 64 27 118 46 121 43 10
-10 -155 -86 -231 -107 -122 -33 -197 -73 -305 -166 -98 -85 -130 -121 -130
-148 0 -13 -167 -124 -220 -145 -23 -9 -23 -10 13 -10 20 -1 37 -5 37 -10 0
-10 -49 -21 -93 -21 -41 0 -30 -9 24 -19 l44 -8 -37 -17 c-51 -22 -77 -20 -87
6 -11 31 -19 11 -27 -73 -5 -58 -3 -83 10 -113 12 -30 14 -41 5 -47 -15 -9 38
-43 91 -60 58 -19 61 -32 5 -26 -27 3 -72 9 -100 12 l-50 5 40 -20 c22 -11 62
-22 88 -26 46 -6 48 -8 42 -33 -14 -57 -31 -71 -90 -71 -29 0 -57 -5 -61 -11
-4 -8 12 -10 57 -8 l64 4 -4 -30 c-6 -57 -71 -157 -99 -154 -31 3 -39 -1 -70
-31 -33 -32 -44 -35 -137 -46 -70 -8 -66 -10 40 -23 50 -6 85 -6 97 0 31 16
21 -15 -18 -63 -48 -57 -62 -87 -45 -97 10 -7 7 -25 -13 -88 -29 -93 -53 -219
-60 -315 -3 -43 -14 -84 -29 -115 -28 -54 -87 -218 -86 -236 0 -7 13 15 28 47
l27 59 -3 -129 c-1 -71 -5 -248 -9 -394 l-6 -265 -39 -115 c-21 -63 -41 -132
-45 -153 -5 -29 -14 -41 -38 -54 -68 -35 -146 -129 -179 -217 -6 -16 -5 -17 8
-6 21 17 20 5 -11 -120 -31 -124 -28 -196 13 -400 38 -192 107 -374 182 -485
31 -45 26 -28 -29 95 -27 62 -50 117 -50 122 0 5 16 -12 36 -39 20 -26 42 -53
50 -59 38 -30 150 -317 199 -508 19 -73 48 -170 65 -217 91 -242 118 -335 114
-393 -3 -55 -2 -57 19 -51 17 5 14 -2 -15 -28 -48 -43 -49 -55 -3 -28 28 16
37 18 41 8 10 -26 -15 -64 -65 -98 -28 -19 -51 -38 -51 -42 0 -11 57 1 92 19
36 19 36 19 52 -21 8 -19 21 -34 28 -33 8 2 17 -22 25 -72 l13 -75 -36 -33
c-41 -39 -41 -48 0 -26 33 16 42 13 28 -11 -12 -23 27 -65 60 -65 32 0 58 -27
38 -40 -20 -12 -94 -22 -113 -14 -9 3 -17 1 -17 -5 0 -18 37 -31 89 -31 41 0
49 -3 45 -15 -10 -25 19 -17 56 15 42 35 63 40 32 7 -12 -13 -22 -29 -22 -36
0 -16 38 -5 66 20 11 11 33 19 49 19 l29 0 -35 -26 c-19 -14 -51 -35 -72 -45
-56 -29 -39 -34 35 -11 49 16 76 33 122 76 33 31 63 56 68 56 30 0 -29 -72
-74 -91 -31 -13 -32 -13 -9 -19 24 -5 24 -6 -20 -56 -24 -28 -81 -99 -126
-157 -90 -116 -174 -191 -329 -296 -112 -76 -240 -130 -437 -186 -66 -18 -123
-38 -126 -44 -4 -6 -34 -24 -66 -41 l-60 -30 -305 0 c-215 0 -341 5 -425 15
-553 70 -828 86 -1105 65 -192 -14 -293 -29 -408 -60 l-82 -22 0 -987 1 -986
24 45 c13 25 50 109 81 188 31 79 58 141 61 139 2 -3 -3 -22 -12 -43 -9 -22
-48 -130 -86 -242 l-70 -203 3 -152 3 -151 74 197 c41 108 76 197 78 197 3 0
1 -10 -2 -22 -19 -67 -6 -45 90 147 58 116 105 208 105 205 0 -3 -29 -91 -64
-195 -35 -105 -67 -199 -70 -210 -3 -11 30 52 74 140 44 88 80 157 80 154 0
-3 -11 -39 -25 -79 -14 -40 -23 -75 -21 -78 3 -2 20 30 40 72 35 77 59 107 30
38 -8 -20 -62 -152 -119 -292 -57 -140 -128 -315 -158 -388 -31 -72 -54 -132
-51 -132 2 0 17 26 33 58 16 31 74 135 130 230 56 95 120 209 142 254 22 44
42 78 45 75 2 -2 -14 -55 -36 -117 -31 -87 -56 -135 -108 -209 -55 -78 -181
-311 -167 -311 14 0 193 293 274 450 55 107 101 192 101 188 0 -4 -18 -53 -40
-109 -22 -57 -40 -108 -40 -113 1 -6 19 23 40 64 39 76 52 88 26 25 -8 -19
-28 -86 -45 -148 -17 -63 -33 -122 -36 -133 -3 -10 19 28 50 86 31 58 54 97
51 87 -19 -62 -120 -347 -151 -426 -36 -90 -37 -95 -19 -108 10 -7 20 -13 23
-13 3 0 62 115 130 255 68 140 126 253 128 252 2 -2 -3 -23 -11 -45 -9 -23
-13 -42 -11 -42 3 0 23 35 44 77 43 84 53 91 22 15 -11 -26 -50 -123 -87 -217
-36 -93 -84 -205 -106 -249 -21 -43 -38 -79 -36 -81 2 -1 13 -7 24 -13 20 -10
24 -6 54 61 19 40 56 113 83 162 27 50 74 136 104 192 30 57 57 103 59 103 2
0 -5 -21 -15 -47 -10 -27 -38 -102 -61 -168 -23 -66 -62 -165 -87 -220 -24
-55 -47 -106 -50 -113 -3 -6 0 -12 6 -12 6 0 37 53 70 118 63 125 188 350 176
317 -8 -24 -59 -159 -75 -200 -20 -53 3 -17 82 128 43 78 78 139 78 136 0 -10
-144 -346 -193 -451 -25 -54 -42 -98 -37 -98 5 0 46 71 91 158 112 214 230
432 235 432 9 0 -115 -278 -205 -459 -39 -77 -71 -145 -71 -151 0 -27 19 -3
54 68 68 140 289 552 293 548 5 -4 -193 -468 -236 -554 -40 -80 -46 -102 -27
-102 9 0 50 69 110 188 52 103 95 183 96 178 0 -6 7 -1 15 10 14 18 15 17 6
-7 -5 -15 -32 -72 -60 -128 -28 -55 -51 -104 -51 -108 1 -16 99 170 229 429
73 148 135 268 137 268 2 0 -12 -35 -31 -78 -18 -42 -68 -158 -110 -257 -43
-99 -113 -258 -158 -353 -58 -125 -77 -176 -69 -184 8 -8 18 4 35 43 199 441
290 631 282 589 -14 -68 -164 -440 -236 -582 -17 -33 -28 -63 -24 -66 10 -10
21 10 90 162 77 170 225 474 225 464 0 -10 -161 -407 -214 -527 -48 -109 -52
-121 -36 -121 19 0 85 120 163 297 44 101 82 181 84 180 1 -2 -40 -110 -92
-241 -52 -131 -95 -243 -95 -248 0 -5 7 -8 15 -6 14 3 126 234 215 443 33 77
59 123 47 80 -5 -17 -162 -433 -196 -517 -9 -24 -8 -28 7 -28 13 0 37 48 96
188 97 230 218 503 222 499 2 -2 -52 -155 -125 -352 -10 -27 -22 -59 -26 -70
-11 -33 73 122 96 176 29 65 36 57 9 -11 -11 -29 -19 -58 -17 -64 3 -6 -2 -26
-9 -45 -20 -48 -11 -49 11 -1 15 34 45 72 45 58 0 -3 -38 -94 -85 -203 -47
-109 -85 -200 -85 -202 0 -2 4 -3 9 -3 5 0 31 44 58 98 27 53 77 142 112 197
35 55 77 120 93 145 l28 45 -3 -35 c-3 -19 -28 -84 -56 -145 -55 -116 -134
-315 -127 -322 6 -6 235 462 277 567 44 110 49 102 14 -19 -30 -101 -31 -118
-5 -71 11 19 19 33 20 29 0 -9 -64 -195 -114 -328 -26 -68 -45 -125 -43 -127
2 -2 57 127 122 286 65 159 120 288 122 287 4 -5 -114 -337 -176 -493 -53
-135 -59 -158 -39 -152 7 3 60 135 118 294 183 497 178 484 176 437 0 -23 -4
-39 -8 -37 -4 3 -5 -1 -2 -9 7 -20 -14 -97 -33 -115 -9 -9 -11 -17 -5 -21 7
-4 0 -48 -18 -116 -16 -61 -27 -111 -26 -113 2 -1 16 28 31 65 15 38 37 90 48
116 11 26 22 46 24 43 3 -2 -29 -95 -71 -206 -42 -110 -76 -204 -76 -208 1
-22 119 221 152 313 40 109 58 144 58 113 0 -22 -39 -147 -56 -180 -8 -16 -10
-28 -5 -28 5 0 14 14 21 30 19 45 23 30 5 -20 -19 -53 -19 -62 1 -30 11 19 14
20 10 5 -19 -75 -15 -77 22 -10 22 39 66 148 97 242 32 95 60 171 63 169 2 -3
-5 -33 -16 -68 -25 -76 -142 -514 -141 -525 0 -4 27 69 59 162 64 186 76 206
30 50 -16 -54 -27 -101 -25 -103 2 -2 15 18 29 45 14 26 25 42 26 36 0 -12
-71 -296 -85 -338 -6 -17 -5 -18 4 -4 6 10 40 102 76 205 63 184 124 340 125
318 0 -6 -9 -37 -20 -69 -34 -98 -17 -84 24 19 21 54 40 95 42 93 2 -2 -16
-62 -40 -133 -61 -178 -60 -173 -42 -144 8 14 15 22 16 19 0 -7 -79 -217 -116
-307 -9 -23 -14 -46 -10 -50 16 -15 45 43 105 212 35 97 67 176 73 176 5 0 7
3 5 8 -3 4 1 13 9 20 19 18 18 7 -11 -78 -14 -40 -23 -75 -21 -77 2 -2 20 36
41 84 35 82 115 244 115 233 0 -3 -29 -95 -65 -205 -35 -109 -63 -201 -61
-202 2 -2 32 66 66 152 35 85 65 153 67 151 5 -4 -94 -283 -148 -419 -37 -91
-43 -125 -19 -101 8 8 179 431 194 481 4 11 13 24 21 27 19 7 20 11 -16 -86
-25 -66 -47 -170 -34 -156 2 2 16 35 32 75 15 39 32 71 38 71 5 0 18 23 28 51
35 90 28 49 -13 -80 -21 -68 -32 -115 -24 -105 8 11 14 24 14 30 0 5 2 7 5 5
7 -7 -26 -117 -69 -232 -34 -90 -40 -126 -17 -101 8 8 138 354 156 412 4 13 9
21 11 19 5 -5 -82 -315 -111 -396 -18 -53 -19 -71 -2 -71 7 0 24 31 37 70 30
88 38 84 11 -6 -11 -37 -18 -71 -15 -76 16 -25 35 8 88 152 59 158 79 200 50
105 -19 -65 -3 -46 26 30 13 33 27 64 31 69 6 7 -11 -84 -36 -189 -3 -11 6 3
19 30 23 48 24 48 19 15 -2 -19 -13 -69 -23 -110 -11 -41 -22 -86 -25 -100
l-6 -25 13 25 c39 81 108 243 123 288 22 68 29 63 10 -8 -21 -79 -17 -84 10
-15 13 33 24 55 24 50 1 -8 -82 -261 -124 -380 -5 -16 -5 -17 4 -5 5 8 31 75
57 149 26 74 49 131 51 126 1 -6 -6 -50 -16 -100 -10 -49 -17 -92 -15 -94 1
-1 30 80 63 180 33 101 60 180 60 175 1 -14 -66 -266 -95 -359 -41 -132 -25
-134 25 -2 16 44 30 71 31 60 1 -11 12 7 25 40 35 88 29 46 -9 -70 -19 -55
-33 -101 -32 -102 1 -1 16 7 34 19 22 14 45 45 69 94 l37 74 32 -31 33 -32
-15 49 c-22 74 -33 124 -24 119 4 -2 13 -26 20 -52 7 -27 19 -55 26 -63 7 -8
14 -30 16 -49 2 -21 11 -39 25 -48 l21 -14 -14 47 c-8 26 -12 49 -10 52 3 2
12 -21 22 -51 12 -39 24 -58 41 -66 41 -19 41 -21 4 79 -22 59 -20 57 35 -33
20 -32 38 -56 41 -54 2 3 -15 47 -37 98 -53 121 -72 177 -67 192 3 7 8 -1 12
-18 12 -46 64 -145 179 -341 58 -98 110 -186 116 -194 18 -26 -11 32 -51 102
-40 69 -46 84 -29 73 14 -9 14 -9 -25 85 -19 46 -33 85 -31 87 1 2 43 -57 91
-129 95 -143 111 -164 97 -133 -18 43 -84 178 -167 345 -87 175 -117 240 -111
240 2 0 32 -51 66 -113 35 -61 100 -175 146 -252 45 -77 102 -179 125 -227 39
-79 59 -106 59 -79 0 8 -80 162 -172 331 -19 35 -23 46 -9 30 11 -14 28 -40
38 -58 23 -41 39 -42 17 -1 -28 55 -175 402 -171 405 2 2 39 -69 82 -158 75
-155 152 -281 279 -451 32 -43 60 -77 62 -74 13 13 -88 209 -182 352 -33 51
-5 23 35 -35 23 -33 44 -60 46 -60 6 0 -7 33 -18 48 -6 8 -12 21 -13 30 -1 10
-4 26 -8 37 -4 11 6 -5 23 -35 16 -30 64 -96 108 -145 43 -50 93 -108 110
-130 97 -117 -11 67 -135 233 -13 17 -22 32 -19 32 3 0 55 -61 116 -135 60
-74 112 -131 115 -127 3 5 -38 72 -90 150 -52 78 -93 142 -91 142 2 0 49 -58
103 -130 88 -117 114 -144 114 -123 0 7 -107 177 -192 306 -32 48 -57 87 -54
87 5 0 214 -281 236 -316 13 -21 69 -54 91 -54 5 0 -14 34 -43 75 -29 41 -73
103 -97 137 -25 35 -37 57 -28 49 25 -20 21 -5 -9 35 -15 19 -24 34 -21 34 2
0 39 -43 82 -95 42 -52 79 -95 81 -95 3 0 -14 33 -36 73 -49 85 -255 495 -246
486 4 -4 49 -77 101 -162 51 -86 122 -190 157 -233 35 -42 101 -122 147 -178
78 -94 101 -118 101 -101 0 4 -35 66 -79 139 -43 72 -124 210 -179 306 -55 96
-110 192 -122 213 -42 70 -12 37 36 -40 99 -161 276 -433 281 -433 3 0 -1 10
-9 22 -17 26 -226 369 -252 414 -17 29 -17 29 1 4 10 -13 118 -171 240 -350
123 -179 230 -326 238 -328 8 -2 15 -1 15 1 0 3 -128 198 -285 433 -157 236
-272 413 -257 395 110 -139 357 -464 415 -546 84 -119 87 -123 87 -107 0 14
-148 235 -232 345 -32 42 -57 77 -54 77 3 0 40 -43 82 -95 76 -95 101 -119 70
-68 l-17 28 22 -25 c25 -30 251 -355 268 -388 7 -12 16 -20 21 -17 6 4 3 19
-7 38 -9 18 -37 79 -63 137 -25 58 -74 147 -108 198 -35 50 -61 92 -58 92 2 0
30 -34 61 -75 32 -41 61 -73 65 -70 8 5 34 -25 178 -203 51 -63 92 -111 92
-108 0 34 -189 316 -378 564 -13 17 -22 32 -20 32 3 0 65 -76 139 -169 74 -93
135 -168 137 -166 7 6 -28 63 -108 175 -45 63 -72 106 -60 95 31 -28 232 -279
315 -395 82 -114 83 -115 91 -108 3 3 -65 110 -151 237 -86 127 -154 231 -151
231 2 0 66 -82 141 -182 148 -197 162 -215 150 -183 -4 11 -22 61 -39 110 -18
52 -54 124 -85 170 l-53 80 47 -50 c37 -41 45 -45 39 -25 -3 14 -18 40 -31 58
-19 26 -21 31 -7 22 11 -7 33 -31 49 -55 45 -65 259 -334 263 -330 2 2 -10 35
-27 74 -26 62 -119 204 -248 384 -59 80 -31 52 67 -68 51 -63 95 -115 97 -115
3 0 -14 46 -28 73 -7 12 -52 82 -101 155 -48 72 -87 132 -85 132 2 0 34 -38
71 -85 68 -85 80 -98 70 -70 -15 38 8 8 45 -59 63 -114 78 -109 20 6 -12 24
-35 63 -52 87 -17 24 -25 41 -19 37 17 -10 16 -7 -24 79 -19 42 -34 79 -31 81
2 2 25 -43 52 -101 36 -78 77 -144 163 -258 63 -83 117 -154 120 -157 8 -8 0
7 -90 155 -47 78 -120 201 -163 275 -43 74 -85 146 -93 160 -80 130 216 -301
343 -499 44 -68 81 -119 82 -114 2 6 -39 81 -91 169 -52 87 -91 161 -86 162 6
2 10 8 10 14 0 6 -6 8 -14 5 -10 -4 -13 2 -12 18 2 34 7 27 132 -174 90 -145
109 -171 116 -155 7 15 -9 53 -68 164 -100 190 -199 390 -179 365 8 -11 23
-29 32 -40 10 -11 16 -26 15 -34 -2 -8 1 -10 9 -5 9 5 10 2 6 -9 -4 -10 -2
-16 4 -14 6 1 56 -83 112 -187 56 -104 103 -184 104 -179 2 5 -37 88 -87 183
-49 95 -87 176 -84 181 3 5 1 9 -4 9 -6 0 -8 8 -5 18 2 10 -36 97 -86 197 -49
99 -88 181 -87 182 4 4 137 -236 228 -412 51 -99 78 -141 78 -125 1 30 4 23
121 -245 43 -99 79 -175 79 -169 0 7 -13 64 -29 128 -20 78 -61 187 -126 337
-53 122 -101 233 -106 248 -19 49 -158 515 -155 518 2 2 19 -36 39 -84 20 -49
65 -160 101 -247 36 -88 80 -206 98 -263 19 -58 38 -103 46 -103 6 0 12 6 12
14 0 8 -33 130 -73 273 -41 142 -77 269 -81 283 -5 18 -4 21 3 10 14 -23 86
-235 141 -415 26 -87 53 -161 59 -163 17 -6 14 7 -49 207 -33 104 -60 193 -59
198 0 13 38 -84 94 -242 29 -82 58 -151 64 -153 16 -5 14 6 -19 140 -17 66
-29 122 -27 124 2 2 16 -41 32 -96 16 -55 30 -98 32 -96 2 2 -10 59 -27 126
-17 67 -29 124 -27 126 3 3 61 -175 108 -333 9 -28 39 -55 39 -33 0 5 -11 64
-24 132 -14 68 -27 150 -30 183 -5 60 -5 60 19 -30 13 -49 34 -137 46 -195 24
-115 24 -115 55 -124 21 -6 20 -2 -17 156 -21 90 -37 167 -36 173 2 5 23 -60
46 -145 58 -211 56 -205 73 -208 14 -3 11 22 -19 160 -43 205 -48 238 -28 183
l15 -40 -5 45 -4 45 15 -50 c28 -93 34 -104 29 -60 -5 41 55 -156 77 -253 7
-33 19 -57 31 -63 10 -6 21 -9 23 -6 3 3 -7 51 -21 107 -14 56 -24 107 -23
112 2 6 12 -22 22 -61 33 -127 28 -68 -8 102 -41 190 -44 226 -10 112 13 -44
22 -64 19 -45 -11 83 -15 124 -10 115 4 -9 81 -342 100 -431 4 -20 14 -34 26
-37 25 -7 25 -8 -11 169 -43 209 -33 211 16 3 29 -124 45 -175 56 -177 12 -2
8 31 -24 195 -21 109 -37 205 -35 213 3 18 61 -186 90 -322 18 -79 25 -98 39
-98 23 0 23 3 -8 154 -14 70 -24 130 -22 132 3 2 19 -60 38 -139 18 -78 36
-146 41 -151 21 -23 20 13 -5 136 -30 153 -32 184 -5 83 18 -66 19 -55 4 45
-2 19 6 -3 19 -50 30 -106 33 -91 5 25 -11 48 -18 89 -16 91 4 4 42 -134 78
-279 18 -76 22 -47 5 43 -9 45 -16 92 -15 104 1 11 11 -26 23 -84 17 -83 25
-106 40 -108 13 -3 17 1 12 15 -2 10 -7 36 -10 58 -5 37 -4 35 11 -12 9 -29
20 -53 24 -53 13 0 12 5 -16 136 -14 64 -23 119 -20 122 3 3 5 -3 6 -14 0 -10
3 -14 5 -8 3 7 -2 42 -11 79 -8 38 -14 70 -12 72 2 2 23 -72 46 -164 24 -93
47 -177 51 -188 15 -35 11 74 -5 140 -18 73 -18 94 0 40 l13 -40 2 35 c1 19 8
-9 15 -63 7 -54 15 -100 18 -104 4 -3 13 0 22 7 13 11 15 9 15 -11 0 -30 74
-247 89 -262 18 -18 13 33 -14 140 -14 54 -25 111 -25 127 0 16 -7 67 -16 114
-8 46 -14 86 -11 88 2 2 16 -41 31 -95 15 -55 34 -111 41 -124 7 -14 16 -39
20 -56 4 -17 10 -33 15 -36 4 -3 4 12 -1 32 -10 45 -3 55 18 28 15 -20 15 -20
9 0 -17 61 -47 198 -43 201 3 3 19 -55 37 -128 25 -101 38 -139 57 -158 l25
-25 -4 25 c-3 14 -21 99 -41 190 -33 156 -59 301 -54 307 2 1 29 -92 62 -207
32 -115 61 -208 63 -206 2 3 -10 62 -27 132 -17 70 -30 129 -28 130 3 3 106
-355 123 -428 5 -21 12 -28 31 -28 17 0 23 4 20 13 -11 30 -108 450 -104 454
3 2 17 -41 32 -96 16 -55 32 -98 36 -95 4 2 11 -11 15 -31 13 -73 21 -40 19
78 -4 140 2 121 35 -121 19 -139 24 -159 61 -227 23 -41 42 -75 43 -75 1 0
-10 60 -26 133 -27 130 -32 165 -24 156 3 -2 23 -80 45 -173 23 -99 47 -176
57 -185 15 -15 16 -14 10 4 -13 49 -77 386 -74 395 2 6 18 -48 37 -120 19 -72
35 -129 38 -127 2 2 -13 73 -32 157 -19 84 -34 155 -32 157 4 3 73 -233 126
-426 20 -74 31 -98 31 -69 0 9 -22 112 -49 230 -27 117 -52 227 -55 243 -12
61 99 -291 134 -422 6 -26 17 -43 25 -43 8 0 15 3 15 7 0 4 -27 101 -61 216
-33 115 -59 211 -57 213 2 2 26 -61 53 -141 28 -79 51 -142 52 -141 2 1 -4 35
-13 75 -8 41 -13 76 -10 78 2 3 21 -48 42 -114 20 -65 41 -122 46 -127 17 -20
7 32 -27 138 -36 113 -41 153 -10 69 10 -27 21 -52 25 -56 9 -10 -25 180 -39
216 -14 35 -14 40 -1 32 7 -4 9 9 5 37 -2 24 4 7 14 -37 10 -44 38 -125 63
-180 24 -55 50 -115 58 -132 8 -21 19 -33 31 -33 20 0 25 -14 -85 268 -31 79
-56 147 -56 150 0 10 141 -280 175 -361 25 -59 57 -98 71 -84 2 2 -19 55 -47
118 -78 174 -151 356 -133 334 8 -11 65 -119 126 -240 60 -121 114 -221 118
-223 26 -10 15 31 -34 126 -93 182 -186 372 -182 372 2 0 23 -34 47 -75 23
-41 44 -74 45 -72 2 2 -17 56 -41 121 -25 65 -45 121 -45 124 1 4 17 -24 37
-63 20 -38 55 -92 77 -120 53 -63 88 -117 63 -96 -9 7 -17 11 -17 7 0 -11 124
-225 128 -221 3 2 -5 20 -16 39 -24 40 -63 126 -57 126 2 0 23 -35 46 -78 78
-141 149 -244 149 -216 0 12 -148 283 -180 329 -15 22 -25 45 -23 51 4 12
-101 247 -159 354 -23 41 -36 71 -31 65 18 -17 110 -159 147 -226 43 -78 46
-71 7 16 -17 36 -28 65 -26 65 4 0 86 -141 119 -205 43 -85 33 -45 -18 68 -29
64 -27 77 3 20 31 -59 24 -33 -15 59 -20 45 -40 94 -46 108 -18 48 18 0 62
-82 49 -92 64 -104 19 -17 -47 93 -30 79 26 -21 28 -49 53 -90 58 -90 11 0 9
78 -3 103 -10 22 -10 22 6 -1 9 -12 25 -22 36 -22 17 0 13 13 -35 105 -31 58
-54 105 -52 105 2 0 34 -49 70 -110 56 -93 70 -110 91 -110 32 0 31 1 -52 183
-34 75 -61 137 -59 137 7 0 125 -218 151 -278 15 -34 29 -61 31 -59 2 2 -6 26
-17 52 -35 81 -16 59 31 -36 66 -135 88 -136 34 -1 -52 130 -117 314 -112 319
2 2 21 -43 42 -99 55 -151 157 -368 172 -368 10 0 10 8 -3 37 -16 38 -59 144
-95 236 -35 89 -9 47 72 -116 45 -89 83 -164 85 -166 2 -2 15 -1 29 3 l25 6
-41 83 c-48 96 -41 95 13 -1 21 -37 38 -64 38 -61 0 14 -56 142 -111 251 -32
65 -57 118 -55 118 5 0 53 -80 75 -123 30 -59 19 -16 -19 78 -65 159 -39 120
38 -57 115 -265 105 -246 109 -221 2 12 -3 35 -12 52 -8 17 -13 31 -10 31 2 0
13 -17 24 -37 27 -52 26 -35 -9 82 -16 54 -27 101 -25 103 2 2 21 -52 43 -119
38 -119 41 -124 73 -135 19 -7 35 -11 36 -10 1 1 -18 42 -44 90 -25 49 -40 85
-33 81 10 -6 12 -4 7 8 -11 28 1 19 18 -13 17 -33 20 -52 4 -30 -7 10 -9 11
-7 2 2 -8 7 -13 12 -12 5 1 13 -4 17 -12 14 -22 10 3 -12 72 -43 138 -70 233
-66 236 2 2 25 -60 52 -139 81 -240 125 -334 125 -268 0 15 -104 357 -125 414
-4 9 -5 17 -2 17 2 0 19 -39 37 -86 17 -47 34 -84 36 -81 6 6 -63 219 -100
307 -19 44 -32 80 -30 80 16 0 160 -337 219 -514 24 -71 48 -132 53 -135 5 -3
24 -40 42 -81 68 -156 227 -456 236 -447 7 7 -50 178 -95 290 -38 94 -85 246
-78 253 2 2 43 -98 93 -223 79 -201 93 -228 121 -245 26 -16 35 -32 54 -91 27
-89 36 -73 15 25 -9 40 -18 84 -21 98 -3 16 1 12 13 -12 32 -71 30 -38 -5 53
-18 50 -32 93 -30 95 2 3 20 -37 40 -88 36 -94 43 -104 64 -90 14 9 -11 97
-48 164 -11 20 -22 53 -24 72 -5 38 -94 292 -144 415 -17 41 -30 76 -28 77 2
2 18 -31 36 -74 42 -98 214 -453 218 -449 1 2 -36 88 -83 191 -47 104 -83 190
-81 192 4 4 106 -205 184 -376 22 -46 42 -80 45 -75 3 6 -43 118 -103 249 -60
132 -107 241 -105 243 1 2 43 -80 92 -181 49 -102 90 -183 92 -182 1 2 -22 59
-53 126 -30 68 -53 125 -51 127 2 2 29 -46 61 -107 31 -62 59 -109 62 -107 2
3 -23 65 -56 138 -33 73 -59 135 -56 137 2 3 10 -7 16 -21 7 -15 15 -25 18
-22 4 2 27 -34 51 -81 25 -46 48 -84 52 -84 4 0 26 -37 49 -82 35 -71 231
-348 245 -348 6 0 18 -20 -131 230 -71 118 -146 242 -168 275 -52 77 -28 57
54 -44 35 -44 65 -78 66 -77 2 2 -24 51 -58 110 -33 60 -62 116 -64 126 -2 10
-9 28 -15 39 -6 12 -9 21 -6 21 2 0 37 -53 77 -118 93 -151 96 -153 59 -53
-17 46 -29 86 -27 88 2 2 50 -87 106 -197 96 -191 104 -204 165 -255 35 -30
81 -74 101 -97 l37 -43 -22 40 c-13 22 -32 55 -43 74 -12 19 -16 32 -10 28 5
-3 43 -58 83 -122 41 -64 80 -121 89 -128 13 -11 -1 12 -124 203 -27 41 -86
140 -133 220 -46 80 -93 160 -104 178 -11 17 -18 32 -15 32 10 0 254 -350 366
-525 104 -163 154 -227 165 -214 2 2 -86 138 -194 302 -109 163 -196 297 -194
297 1 0 55 -69 120 -152 144 -188 167 -212 81 -88 -36 52 -100 149 -142 215
-42 66 -83 131 -92 145 -14 20 -14 22 -1 10 19 -19 196 -258 402 -545 177
-246 173 -241 181 -233 4 3 -79 120 -183 259 -182 246 -465 639 -458 639 2 0
69 -83 150 -185 81 -102 151 -183 156 -180 4 3 7 -3 6 -13 0 -9 4 -16 11 -15
6 1 17 -5 25 -14 9 -12 9 -15 1 -9 -20 11 -15 -2 13 -40 14 -18 30 -32 34 -29
5 3 41 -38 81 -90 39 -52 73 -95 75 -95 4 0 -23 65 -42 102 -23 45 -10 32 50
-47 31 -41 58 -75 61 -75 9 0 -10 37 -44 84 -19 27 -53 77 -74 110 -22 34 -61
88 -86 121 -55 71 -74 103 -35 60 56 -62 274 -284 274 -279 0 3 -21 42 -47 87
-62 108 -153 208 -244 266 -41 26 -91 62 -111 80 -59 51 -45 77 17 33 19 -13
19 -14 -5 -7 -23 5 -22 3 10 -25 34 -30 115 -90 122 -90 2 0 5 11 6 26 1 15
-2 23 -8 19 -6 -4 -7 -12 -3 -18 4 -7 -1 -6 -11 2 -12 10 -14 16 -5 21 15 10
1 32 -14 24 -7 -4 -9 -4 -5 1 4 4 2 15 -4 24 -7 9 4 1 23 -16 19 -18 39 -33
43 -33 13 0 56 -37 50 -43 -8 -8 91 -113 140 -148 21 -16 35 -29 31 -29 -12 0
24 -37 70 -74 l40 -31 -22 38 c-12 20 -21 37 -20 37 2 0 29 -32 61 -70 57 -68
87 -88 52 -35 -15 23 -15 25 1 26 10 1 25 2 33 3 8 2 23 3 34 4 16 2 14 5 -10
24 -16 13 -37 33 -47 45 -19 23 -44 33 -31 11 5 -7 3 -8 -7 -3 -36 21 -165
109 -174 118 -15 15 10 0 93 -56 122 -81 92 -46 -45 53 -143 103 -157 115
-128 103 11 -4 92 -56 180 -114 180 -119 185 -122 185 -116 0 3 -29 26 -65 52
-36 27 -65 50 -65 52 0 7 68 -32 170 -98 95 -61 333 -181 285 -143 -11 9 -120
84 -243 168 -248 171 -238 163 -217 163 8 0 15 -3 15 -7 0 -4 6 -7 13 -7 6 0
76 -35 155 -77 79 -43 152 -79 163 -81 35 -7 302 -150 409 -220 56 -36 105
-64 107 -61 3 2 -64 51 -149 107 -141 94 -259 178 -283 202 -21 21 265 -132
368 -197 124 -78 182 -88 66 -12 -91 60 -300 206 -314 219 -5 5 26 -9 70 -32
89 -47 88 -46 -69 57 -129 86 -162 114 -91 80 28 -14 77 -38 110 -54 87 -41
256 -138 364 -207 89 -58 94 -60 107 -42 8 10 14 24 14 30 0 6 -62 47 -137 90
-128 73 -345 207 -368 227 -15 14 217 -96 315 -149 105 -56 97 -48 -55 55 -88
60 -153 94 -245 131 -69 27 -137 52 -152 56 -19 5 -25 12 -21 23 4 13 3 14 -5
4 -7 -11 -17 -11 -51 -1 -29 8 -38 16 -31 23 5 5 10 17 10 25 -1 12 -6 10 -20
-7 -24 -29 -45 -21 -29 11 7 12 13 23 14 25 2 3 79 -26 140 -53 17 -7 55 -23
85 -35 30 -12 93 -40 140 -62 47 -22 117 -55 155 -73 161 -74 354 -169 407
-201 57 -33 58 -33 58 -10 0 18 -20 34 -102 83 -241 142 -577 307 -948 466
-458 196 -549 238 -870 394 -135 66 -333 162 -440 213 -225 108 -334 174 -376
227 -17 21 -128 184 -247 363 -120 179 -255 375 -300 436 -45 61 -108 147
-139 191 -31 43 -66 87 -78 98 -26 23 -26 58 1 300 18 158 20 227 16 410 -3
122 -11 236 -17 255 -10 32 -7 47 43 180 30 80 78 217 107 305 29 88 67 185
85 215 225 380 240 409 328 630 81 203 114 350 123 551 l7 141 34 15 c49 20
143 99 181 152 73 100 78 118 88 321 6 118 3 152 -33 476 -4 37 -2 54 8 62 68
56 89 76 89 88 0 7 10 23 23 34 20 19 22 30 20 101 -2 61 -7 84 -21 99 -34 37
-85 287 -112 558 -12 112 -26 215 -31 230 -17 43 -29 135 -20 146 4 6 2 43 -5
81 -7 40 -13 155 -13 266 -1 172 1 202 20 257 17 52 19 70 11 122 -8 52 -7 63
6 68 9 3 18 0 20 -6 2 -7 8 -12 14 -12 13 0 4 26 -68 185 -34 77 -64 154 -66
170 -3 27 0 30 22 27 24 -4 25 -3 5 12 -11 8 -25 16 -30 16 -29 1 -33 23 -15
79 10 31 21 77 25 103 5 37 13 53 44 80 39 35 79 88 65 88 -4 0 -19 -10 -32
-22 l-24 -23 9 40 c9 46 9 197 -2 321 l-7 85 -59 29 c-32 17 -63 40 -70 52 -6
13 -21 33 -32 46 -36 40 -5 23 55 -29 73 -63 78 -40 6 27 -153 144 -401 299
-611 383 -39 16 -85 36 -102 44 -16 8 -83 22 -147 32 -65 9 -116 21 -113 25
10 16 -37 22 -285 35 -229 12 -272 17 -416 49 -104 23 -218 58 -317 96 -90 34
-241 81 -357 110 -169 42 -215 50 -283 48 -45 -1 -197 -5 -337 -9z m-1065
-289 c-115 -55 -147 -60 -40 -6 50 25 97 45 105 45 8 0 -21 -18 -65 -39z
m-595 -305 c0 -2 -40 -32 -90 -65 -49 -33 -90 -57 -90 -52 0 16 56 60 115 90
67 35 65 34 65 27z m4505 -185 c21 -22 35 -40 29 -40 -5 0 -28 18 -49 40 -21
22 -35 40 -29 40 5 0 28 -18 49 -40z m-4804 -69 c-25 -34 -72 -65 -121 -79
-19 -5 -44 -13 -55 -17 -11 -4 9 10 45 32 36 21 83 51 105 66 22 15 41 27 43
27 2 0 -6 -13 -17 -29z m4222 12 c-7 -2 -19 -2 -25 0 -7 3 -2 5 12 5 14 0 19
-2 13 -5z m-4594 -380 c1 -13 -3 -23 -8 -23 -10 0 -21 50 -20 89 0 24 1 24 14
-9 7 -19 14 -45 14 -57z m5397 5 c-4 -46 -13 -108 -20 -138 l-14 -55 -1 86
c-1 78 20 189 36 189 3 0 3 -37 -1 -82z m13 -816 c1 -7 -3 -10 -9 -7 -5 3 -10
18 -9 33 0 24 1 25 9 7 5 -11 9 -26 9 -33z m-5679 -604 c0 -7 -5 -20 -10 -28
-8 -12 -10 -9 -10 13 0 15 5 27 10 27 6 0 10 -6 10 -12z m-14 -910 c-14 -72
-29 -110 -39 -97 -2 2 8 51 22 109 28 120 40 112 17 -12z m-91 -153 c-10 -19
-21 -35 -26 -35 -14 0 -11 16 14 66 17 36 23 42 25 26 2 -12 -4 -37 -13 -57z
m47 -17 c-7 -7 -12 -8 -12 -2 0 14 12 26 19 19 2 -3 -1 -11 -7 -17z m-210
-189 c-11 -24 -27 -70 -36 -103 -10 -32 -19 -57 -21 -55 -6 7 21 133 34 159
34 64 50 63 23 -1z m6102 -91 c-18 -33 -40 -48 -67 -48 l-30 0 38 30 c38 31
72 41 59 18z m-74 -93 c-13 -16 -40 -20 -40 -7 0 14 12 22 33 22 16 0 17 -3 7
-15z m-5543 -42 c-3 -10 -5 -4 -5 12 0 17 2 24 5 18 2 -7 2 -21 0 -30z m-557
-238 c9 -79 18 -105 70 -213 33 -68 73 -143 90 -167 35 -51 35 -52 14 -52 -39
0 -155 208 -178 317 -21 102 -41 314 -31 337 6 12 11 -5 17 -57 4 -41 12 -115
18 -165z m218 -480 c-3 -3 -9 2 -12 12 -6 14 -5 15 5 6 7 -7 10 -15 7 -18z
m202 -443 c16 -49 30 -98 30 -108 0 -11 -18 35 -40 101 -22 66 -40 122 -40
125 1 15 23 -38 50 -118z m1800 -210 c0 -13 -4 -20 -10 -17 -5 3 -10 21 -10
38 0 24 3 28 10 17 5 -8 10 -25 10 -38z m-1734 -69 c-10 -10 -19 5 -10 18 6
11 8 11 12 0 2 -7 1 -15 -2 -18z m25 -70 c21 -77 20 -81 -6 -24 -27 58 -30 71
-16 71 5 0 15 -21 22 -47z m2976 -103 c-8 -29 -17 -48 -21 -42 -4 6 1 35 10
64 22 65 29 50 11 -22z m-2672 -790 c3 -5 1 -10 -4 -10 -6 0 -11 5 -11 10 0 6
2 10 4 10 3 0 8 -4 11 -10z m325 1 c0 -6 -4 -13 -10 -16 -5 -3 -10 1 -10 9 0
9 5 16 10 16 6 0 10 -4 10 -9z m-2100 -976 l85 -14 -95 6 c-52 3 -102 9 -110
14 -22 12 17 10 120 -6z m755 -15 c-8 -13 -35 -13 -55 0 -11 7 -5 10 23 10 23
0 36 -4 32 -10z m3222 -2382 c-3 -8 -6 -5 -6 6 -1 11 2 17 5 13 3 -3 4 -12 1
-19z m-3856 -174 c-16 -33 -30 -53 -31 -45 0 16 51 113 57 107 3 -2 -9 -30
-26 -62z m-370 29 c-12 -20 -14 -14 -5 12 4 9 9 14 11 11 3 -2 0 -13 -6 -23z
m3649 -23 c11 -22 18 -40 15 -40 -2 0 -14 18 -25 40 -11 22 -18 40 -15 40 2 0
14 -18 25 -40z m3830 10 c6 -11 8 -20 6 -20 -3 0 -10 9 -16 20 -6 11 -8 20 -6
20 3 0 10 -9 16 -20z m-7289 -17 c-12 -20 -14 -14 -5 12 4 9 9 14 11 11 3 -2
0 -13 -6 -23z m268 -12 c-6 -18 -13 -30 -15 -28 -2 2 1 18 7 36 6 18 13 30 15
28 2 -2 -1 -18 -7 -36z m4528 17 c-3 -8 -6 -5 -6 6 -1 11 2 17 5 13 3 -3 4
-12 1 -19z m260 -20 c-3 -8 -6 -5 -6 6 -1 11 2 17 5 13 3 -3 4 -12 1 -19z
m-250 -20 c-3 -8 -6 -5 -6 6 -1 11 2 17 5 13 3 -3 4 -12 1 -19z m3643 18 c0
-11 -19 -15 -25 -6 -3 5 1 10 9 10 9 0 16 -2 16 -4z m40 -26 c0 -5 -4 -10 -9
-10 -6 0 -13 5 -16 10 -3 6 1 10 9 10 9 0 16 -4 16 -10z m-8458 -22 c-7 -7
-12 -8 -12 -2 0 6 3 14 7 17 3 4 9 5 12 2 2 -3 -1 -11 -7 -17z m3478 -22 c0
-12 -5 -7 -19 24 -11 24 -11 24 3 6 9 -11 16 -24 16 -30z m5030 29 c0 -1 -7
-8 -15 -15 -13 -10 -15 -9 -15 8 0 15 5 20 15 16 8 -4 15 -7 15 -9z m57 -23
l32 -17 -19 -25 -20 -25 0 35 c0 26 -3 31 -12 22 -18 -18 -28 -15 -28 8 0 24
5 24 47 2z m-8108 -51 c-6 -18 -13 -30 -15 -28 -2 2 1 18 7 36 6 18 13 30 15
28 2 -2 -1 -18 -7 -36z m6792 22 c13 -16 12 -17 -3 -4 -10 7 -18 15 -18 17 0
8 8 3 21 -13z m-2664 -75 c-3 -8 -6 -5 -6 6 -1 11 2 17 5 13 3 -3 4 -12 1 -19z
m-3817 -8 c0 -5 -5 -10 -11 -10 -5 0 -7 5 -4 10 3 6 8 10 11 10 2 0 4 -4 4
-10z m6278 -75 c-3 -3 -9 2 -12 12 -6 14 -5 15 5 6 7 -7 10 -15 7 -18z m-9
-87 c31 -77 39 -110 22 -92 -13 13 -74 191 -62 179 5 -5 24 -44 40 -87z
m-4528 55 c13 -16 12 -17 -3 -4 -10 7 -18 15 -18 17 0 8 8 3 21 -13z m5447
-228 c-3 -3 -13 7 -23 22 l-17 28 23 -22 c12 -12 20 -25 17 -28z m-6441 -97
c-3 -8 -6 -5 -6 6 -1 11 2 17 5 13 3 -3 4 -12 1 -19z m247 -146 c42 -72 64
-123 33 -77 -24 35 -88 155 -83 155 2 0 25 -35 50 -78z"/>
<path d="M7250 11800 c0 -5 7 -10 16 -10 8 0 12 5 9 10 -3 6 -10 10 -16 10 -5
0 -9 -4 -9 -10z"/>
<path d="M2896 10609 c14 -24 166 -40 179 -19 4 6 -14 10 -47 10 -29 1 -72 5
-95 9 -23 5 -40 5 -37 0z"/>
<path d="M8451 10469 c-59 -64 -62 -84 -8 -50 37 22 59 51 71 89 11 34 -4 25
-63 -39z"/>
<path d="M3009 10410 c-10 -6 -31 -8 -48 -6 -49 5 -32 -18 17 -25 32 -4 46 -1
57 11 8 9 15 20 15 23 0 10 -22 8 -41 -3z"/>
<path d="M2840 10324 l-65 -13 59 5 c33 3 69 10 80 14 29 12 2 10 -74 -6z"/>
<path d="M26 1906 c-23 -31 -39 -94 -17 -70 10 10 52 104 47 104 -2 0 -15 -15
-30 -34z"/>
<path d="M10150 1830 c0 -5 5 -10 10 -10 6 0 10 5 10 10 0 6 -4 10 -10 10 -5
0 -10 -4 -10 -10z"/>
<path d="M5951 1804 c0 -11 3 -14 6 -6 3 7 2 16 -1 19 -3 4 -6 -2 -5 -13z"/>
<path d="M5671 1784 c0 -11 3 -14 6 -6 3 7 2 16 -1 19 -3 4 -6 -2 -5 -13z"/>
<path d="M5981 1790 c0 -8 6 -37 13 -65 8 -27 15 -43 15 -35 0 8 -6 38 -13 65
-8 28 -15 43 -15 35z"/>
<path d="M1545 1688 c-4 -13 -31 -76 -61 -140 -32 -71 -49 -120 -42 -124 5 -3
13 -2 17 2 12 13 102 276 97 281 -2 3 -7 -6 -11 -19z"/>
<path d="M7261 1679 c-1 -10 110 -253 120 -264 6 -5 9 -3 8 5 0 15 -127 270
-128 259z"/>
<path d="M6501 1654 c0 -11 3 -14 6 -6 3 7 2 16 -1 19 -3 4 -6 -2 -5 -13z"/>
<path d="M1985 1588 c-32 -79 -65 -181 -60 -186 7 -8 7 -7 48 113 37 111 44
151 12 73z"/>
<path d="M8741 1605 c0 -5 6 -21 14 -35 8 -14 14 -20 14 -15 0 6 -6 21 -14 35
-8 14 -14 21 -14 15z"/>
<path d="M4845 1540 c29 -57 166 -252 173 -245 4 4 -171 269 -191 290 -5 6 3
-15 18 -45z"/>
<path d="M1862 1490 c-11 -27 -17 -52 -12 -55 9 -5 45 93 37 101 -2 2 -13 -18
-25 -46z"/>
<path d="M8675 1508 c4 -13 11 -27 16 -33 5 -5 4 5 -2 23 -12 36 -24 44 -14
10z"/>
<path d="M1732 1465 c-24 -50 -26 -55 -14 -55 8 0 45 91 39 96 -2 2 -13 -17
-25 -41z"/>
<path d="M7056 1480 c3 -19 10 -39 15 -44 14 -15 10 15 -6 49 l-15 30 6 -35z"/>
<path d="M1216 1473 c-6 -14 -5 -15 5 -6 7 7 10 15 7 18 -3 3 -9 -2 -12 -12z"/>
<path d="M6820 1446 c0 -21 34 -143 43 -151 7 -7 8 -4 4 8 -4 10 -14 46 -23
80 -14 56 -24 82 -24 63z"/>
<path d="M4340 1416 c0 -4 20 -33 43 -64 24 -31 71 -98 105 -148 33 -50 68
-94 76 -97 9 -4 16 -4 16 -1 0 5 -205 281 -226 304 -8 8 -14 11 -14 6z"/>
<path d="M4725 1395 c21 -36 96 -135 102 -135 4 0 -56 86 -96 135 l-23 30 17
-30z"/>
<path d="M8710 1405 c0 -8 4 -15 10 -15 5 0 7 7 4 15 -4 8 -8 15 -10 15 -2 0
-4 -7 -4 -15z"/>
<path d="M3908 1377 c11 -20 54 -93 94 -162 62 -108 75 -124 92 -119 30 9 31
12 12 33 -10 11 -15 25 -10 32 4 7 3 10 -4 5 -13 -8 -44 33 -35 47 3 6 2 7 -4
4 -5 -3 -40 36 -77 88 -70 98 -106 136 -68 72z"/>
<path d="M4902 1353 c15 -35 59 -95 65 -89 5 5 -64 116 -72 116 -2 0 1 -12 7
-27z"/>
<path d="M4520 1340 c16 -31 150 -220 157 -220 6 0 -2 13 -80 125 -76 108 -97
134 -77 95z"/>
<path d="M3829 1334 c6 -11 25 -35 42 -54 l31 -35 -33 48 c-34 49 -60 76 -40
41z"/>
<path d="M9400 1346 c0 -2 8 -10 18 -17 15 -13 16 -12 3 4 -13 16 -21 21 -21
13z"/>
<path d="M9861 1255 c29 -51 29 -51 29 -32 0 9 -12 29 -26 44 l-26 28 23 -40z"/>
<path d="M3660 1124 c0 -13 92 -144 102 -144 6 0 -48 82 -99 149 -2 2 -3 0 -3
-5z"/>
<path d="M9570 1116 c0 -2 8 -10 18 -17 15 -13 16 -12 3 4 -13 16 -21 21 -21
13z"/>
<path d="M9600 1076 c0 -2 8 -10 18 -17 15 -13 16 -12 3 4 -13 16 -21 21 -21
13z"/>
</g>
</svg>
