<?xml version="1.0" encoding="utf-8"?>
<!DOCTYPE svg PUBLIC "-//W3C//DTD SVG 20010904//EN" "http://www.w3.org/TR/2001/REC-SVG-20010904/DTD/svg10.dtd">
<svg version="1.0" xmlns="http://www.w3.org/2000/svg" width="512px" height="512px" viewBox="0 0 512 512" preserveAspectRatio="xMidYMid meet">
 <g fill="#f14b4b">
  <path d="M52.3 510.5 c-23.7 -6.4 -41.2 -22.2 -49.3 -44.3 l-3 -8.3 0 -201.9 0 -201.9 3 -8.3 c7.1 -19.4 22 -34.3 42.2 -42.1 l8.3 -3.2 201.5 0 201.5 0 8.7 3.3 c19.6 7.5 34.4 22.3 42 42.2 l3.3 8.5 0 201.5 0 201.5 -3.3 8.5 c-7.7 20.1 -22.1 34.5 -42.3 42.3 l-8.4 3.2 -199.5 0.2 c-168.2 0.2 -200.3 0 -204.7 -1.2z m384.5 -21.8 c23.5 -6.4 41.7 -23.6 49.5 -46.8 3.7 -10.8 3.8 -18 3.5 -191.4 -0.4 -184.5 0 -172.4 -5.7 -186.3 -9 -22.3 -30.6 -38.7 -55.5 -42.1 -10.8 -1.5 -336.4 -1.5 -347.2 0 -29.3 4.1 -51.4 24 -59.6 53.9 -1.6 6.1 -2.5 337.8 -0.8 351.7 1.1 10.4 2.8 16 7.2 24.8 10 20 29.7 34.1 52.3 37.4 3.3 0.5 83.4 0.8 178 0.7 159.4 -0.1 172.5 -0.3 178.3 -1.9z"/>
  <path d="M286.3 485.1 c-2.4 -1.5 -5.2 -6.2 -13.6 -23.3 -10.8 -21.8 -22.7 -41.1 -31.4 -50.7 l-4.9 -5.4 -16.3 8.1 c-25.7 12.9 -45 18.3 -65.1 18.4 -13.9 0 -22.6 -1.8 -32.4 -7 -17.9 -9.4 -28 -27.7 -26.3 -47.8 1.9 -24.8 31.1 -41.7 65.8 -38.2 21.7 2.1 40.9 11.8 57.9 29.2 4.1 4.1 8 7.6 8.6 7.6 0.6 0 6 -3.3 12.1 -7.4 39.6 -26.2 61.5 -55.9 67.8 -92 1.9 -11.3 1.9 -26.5 0 -34.1 -4.7 -18 -18.8 -31.9 -33.8 -33.3 -4.8 -0.5 -4.9 -0.4 -4.2 1.9 1.8 6.5 4 5.9 -21.5 5.9 l-23 0 -8.3 4.1 c-17.5 8.8 -29.2 19.1 -34.9 30.6 -2.7 5.5 -3.3 8 -3.6 15.2 -0.4 7.3 -0.1 9.4 1.6 12.7 4.4 8.6 11.7 12.3 24.2 12.4 19 0 35.5 -8.5 45.1 -23.3 8.1 -12.5 9.1 -31.6 2.1 -41.4 l-2.1 -2.9 2.9 -1.7 c7.3 -4.4 17.1 -0.1 22.3 9.8 2.9 5.6 3.5 18.8 1.2 28.9 -5.8 26.5 -26.6 43.4 -57.1 46.5 -16.4 1.7 -28.6 -0.3 -40.9 -6.7 -24.2 -12.7 -33.4 -40.9 -20.9 -64.3 1.6 -3 6.1 -8.7 10 -12.6 l7.2 -7.3 -39.8 0 -39.8 0 -0.6 6.8 c-1.9 19.6 -13.6 191.5 -13.6 198.5 0 14.4 4 26.2 12.2 36 l3.9 4.7 -5.3 -2 c-8.1 -3.2 -21.4 -12.6 -30.4 -21.5 -9.3 -9.2 -14.4 -18.2 -14.4 -25.1 0 -2.3 3.1 -46.4 7 -98.1 3.8 -51.6 7 -95 7 -96.5 l0 -2.8 -17.5 0 -17.5 0 0 -4.2 c0 -2.4 0.3 -8 0.7 -12.5 l0.6 -8.3 22.9 0 23 0 -6.4 -6.9 c-7.1 -7.7 -12.9 -18.1 -15.3 -27.6 -2 -7.9 -1.9 -25.6 0.1 -34.8 2.1 -9.4 8.1 -21.8 14.1 -28.9 25.5 -30.3 77.1 -39.2 118.1 -20.3 29.6 13.7 58.7 45.5 77.7 85 4 8.3 8 16.9 8.9 19.2 l1.6 4.3 -3.7 1.9 -3.8 1.9 -5.7 -11 c-22.9 -43.4 -57.4 -75.7 -92.4 -86.4 -8.1 -2.5 -10.4 -2.8 -25.4 -2.8 -14.6 -0.1 -17.4 0.2 -24 2.2 -26.5 8.4 -44 25.9 -48.2 48.2 -1.4 7.4 -0.3 24.2 2.1 31.8 3.6 11.8 11.2 20.9 19.1 23.3 2.4 0.7 27.9 0.9 81 0.4 42.6 -0.3 81.1 -0.5 85.5 -0.5 35.8 0.1 64.9 25.1 72.6 62.4 2.6 12.8 2.6 32.5 -0.2 45.9 -5.8 28.7 -23.7 57.2 -49.3 78.2 -8.3 6.9 -25.4 18.6 -28.8 19.7 -0.6 0.2 2.3 4.5 6.4 9.5 23.5 28.3 40 53.7 42.2 65.2 1.9 10 -5.7 17.6 -13.1 13.2z m-122.3 -80 c14.5 -3.6 26 -7.9 40.4 -14.9 l14 -6.8 -5 -4.7 c-5.4 -5.3 -15.6 -10.6 -24.9 -13.2 -9.4 -2.5 -32.4 -3.2 -41.7 -1.1 -20.3 4.5 -33 15.3 -33.1 28.1 -0.1 6.8 2.4 11.2 7.6 13.6 3.8 1.8 5.8 1.9 19.2 1.5 10.6 -0.3 17.5 -1.1 23.5 -2.5z"/>
  <path d="M391 458.7 c-13.8 -5.7 -34 -23.3 -41.5 -36.1 -5 -8.7 -5.1 -5.8 1.9 -104.6 3.6 -50.3 6.7 -93.6 7 -96.2 l0.5 -4.8 -17.6 0 -17.6 0 0.7 -3.8 c0.3 -2 0.6 -7.6 0.6 -12.4 l0 -8.8 62 0 62 0 0 10.3 c0 5.6 -0.3 11.2 -0.6 12.5 l-0.6 2.2 -27.9 0 -27.8 0 -0.5 4.3 c-0.3 2.3 -3.6 48.5 -7.2 102.7 -7.3 109.6 -7.3 106.2 -1 119.5 1.9 4.1 5.4 9.2 8.4 12.3 2.8 2.8 5 5.2 4.9 5.2 -0.1 0 -2.7 -1.1 -5.7 -2.3z"/>
 </g>
</svg>