<svg
                    version="1.0"
                    xmlns="http://www.w3.org/2000/svg"
                    viewBox="0 0 1567 563"
                    preserveAspectRatio="xMidYMid meet"
                >
                    <g fill="#f7b933">
                        <path
                            d="M857.8 221.8 c-5.2 -1.6 -6.8 -2.5 -6.8 -3.9 0 -1.3 0.8 -1.9 2.3 -2 1.4 0 1.7 -0.2 0.7 -0.6 -2.9 -1 -13.2 -7.5 -15.7 -9.9 l-2.6 -2.4 3.3 -3 c2.9 -2.7 3.8 -3 9.9 -3 5.8 0 7.4 0.4 11.7 3.1 2.7 1.8 6.3 3.8 8 4.5 3.8 1.6 5.5 6.1 3 8 -2.5 1.8 -1.9 3.4 1.5 3.4 2.9 0 3 0.2 2.7 3.8 l-0.3 3.7 -5.5 0.2 c-3.3 0.1 -8.2 -0.6 -12.2 -1.9z"
                        />
                        <path
                            d="M829.9 196.2 c-1.4 -1.5 -4.5 -5.4 -6.9 -8.7 -2.4 -3.3 -4.7 -6.2 -5 -6.5 -1.7 -1.2 -9 -16.2 -11.4 -23.3 -1.5 -4.3 -3.8 -13.5 -5.2 -20.5 -2.3 -12 -4.1 -16.1 -6.5 -14.6 -1.5 0.9 -3.9 -5.5 -3.9 -10.6 0 -3.5 -0.4 -5 -1.3 -5 -0.8 0 -2.3 -3.2 -3.7 -7.7 -1.4 -4.3 -2.7 -8 -3.1 -8.3 -1.4 -1 -9.9 -18.4 -9.9 -20.2 0 -1 -0.7 -1.8 -1.5 -1.8 -0.8 0 -2.2 -1.4 -3 -3 -0.9 -1.7 -2.9 -4.2 -4.5 -5.7 -1.7 -1.5 -3 -3.6 -3 -5 0 -1.7 -0.6 -2.3 -2.2 -2.3 -3.3 0 -9.2 -2.3 -11.2 -4.3 -1.1 -1 -3.3 -1.7 -5.6 -1.7 -5.2 0 -7 -0.8 -7 -3.2 0 -1.3 0.5 -1.8 1.4 -1.5 0.8 0.3 3.3 -0.9 5.7 -2.6 2.9 -2.2 4.4 -2.7 4.7 -1.8 0.3 0.9 0.8 0.7 1.7 -0.6 2 -2.9 7.6 -2.8 14.1 0.3 4.2 2 6.8 4.2 10.2 8.7 7.7 10 10.3 12.7 12.3 12.7 1 0 1.9 0.5 1.9 1 0 0.6 0.6 1 1.3 1 1.4 0 10.7 18.9 10.7 21.9 0 1.2 0.4 2.1 0.9 2.1 1.2 0 9 23.8 9.8 29.8 0.5 3.4 0.2 4.5 -1.2 5.6 -1.5 1.1 -1.6 2.1 -1 6.7 0.4 3 0.8 6.3 0.9 7.5 0.1 1.1 0.5 2.4 0.8 3 0.3 0.5 1.8 5.2 3.4 10.4 2.6 8.9 8.9 22.6 12 26.1 0.8 0.8 1.4 2 1.4 2.6 0 0.5 1.9 3.8 4.2 7.2 3.1 4.7 4.6 6.1 6 5.8 1.4 -0.4 1.8 0.1 1.8 1.9 0 1.3 -0.5 2.4 -1 2.4 -0.6 0 -1.6 1.1 -2.2 2.5 -1.4 3.1 -1.7 3.1 -4.9 -0.3z"
                        />
                    </g>
                    <g fill="#f5a802">
                        <path
                            d="M858.5 222.5 c-2.7 -0.8 -5.3 -1.4 -5.7 -1.5 -0.5 0 -0.8 -1.2 -0.8 -2.6 0 -2.2 0.3 -2.4 2.3 -1.8 1.2 0.4 3 0.8 4 0.8 0.9 0 1.7 0.4 1.7 0.9 0 0.5 0.7 0.7 1.5 0.3 0.8 -0.3 1.5 -0.1 1.5 0.4 0 1.5 3 1.2 3.1 -0.2 0 -0.7 0.4 -0.4 0.9 0.7 0.5 1.1 0.9 1.4 0.9 0.8 0.1 -1.6 3.1 -1.7 3.1 -0.2 0 0.5 0.5 0.7 1 0.4 0.6 -0.4 0.8 -1.5 0.5 -2.6 -0.4 -1.1 -0.2 -1.9 0.4 -1.9 0.6 0 1.1 1.8 1.1 4 l0 4 -5.2 -0.1 c-2.9 0 -7.5 -0.7 -10.3 -1.4z"
                        />
                        <path
                            d="M865.5 207.6 c-1.6 -0.7 -5.2 -2.7 -7.9 -4.5 -6.4 -4 -11.4 -4.2 -15.1 -0.5 -3 3 -5.9 2.8 -6.3 -0.4 -0.3 -1.6 0.2 -2.2 1.7 -2.2 1.6 0 2.1 -0.9 2.7 -4.5 0.6 -4.5 2 -5.8 3 -3 0.5 1.1 2.1 1.5 6.3 1.5 5.9 -0.1 13 0.6 17.1 1.5 1.4 0.3 3.4 0.8 4.5 0.9 3.6 0.6 5.4 1.8 6.1 3.8 0.7 2.3 -0.5 3.8 -3.2 4.2 -1.1 0.2 -2 1.2 -2.2 2.4 -0.4 2.5 -2.3 2.7 -6.7 0.8z"
                        />
                        <path
                            d="M818.7 181.9 c-2.4 -2.7 -2.1 -3.6 1.3 -5.4 4.2 -2.2 5.4 -1.9 6.7 1.5 0.6 1.7 1 3 0.8 3 -0.1 0 -1.8 0.6 -3.7 1.4 -3.2 1.4 -3.6 1.3 -5.1 -0.5z"
                        />
                        <path
                            d="M808.5 162.9 c-0.6 -2.5 -0.3 -3.5 1.1 -4.6 2.2 -1.6 4.6 -1.7 6.2 -0.1 2 2 1.4 3.8 -1.2 3.8 -1.4 0 -3.1 0.9 -3.9 2.1 -1.5 2 -1.5 2 -2.2 -1.2z"
                        />
                        <path
                            d="M802.7 143.3 c-1.7 -1.6 -0.6 -7 1.8 -9.3 2.9 -2.7 3.9 -2.1 4.8 2.8 0.6 2.7 0.4 3.2 -1.3 3.2 -1 0 -2.5 0.9 -3.3 2 -0.8 1.1 -1.7 1.7 -2 1.3z"
                        />
                        <path
                            d="M797 123.1 c-0.8 -0.5 -1.8 -0.7 -2.2 -0.5 -0.4 0.3 -0.8 -0.9 -0.8 -2.5 0 -1.7 0.5 -3.1 1 -3.1 0.6 0 1 0.7 1 1.5 0 1.9 0.9 1.9 3.5 -0.1 1.3 -0.9 3 -1.2 4.9 -0.8 2.5 0.5 2.8 0.4 2.2 -1.2 -1.8 -4.5 -1.7 -6.4 0.4 -6.4 1.1 0 2 0.6 2 1.3 0 0.6 0.3 2.8 0.6 4.8 0.6 3.3 0.4 3.7 -2.7 5.2 -4.9 2.2 -8.2 2.9 -9.9 1.8z"
                        />
                        <path
                            d="M789.5 111.7 c-0.4 -1.3 -0.4 -4.6 -0.2 -7.3 0.3 -3.9 0.5 -4.4 1.1 -2.7 0.8 2.1 1 2.1 2.9 0.8 1.2 -0.8 3.7 -1.5 5.5 -1.5 2.6 0 3.3 -0.3 2.8 -1.5 -0.3 -1 0.1 -1.5 1.3 -1.5 2.1 0 4.1 3.9 4.1 8 0 3.4 -1.4 3.9 -3 1 -1.4 -2.6 -2.6 -2.5 -6.7 0.3 -2.1 1.4 -3.3 3 -3.3 4.5 0 3.1 -3.8 3 -4.5 -0.1z"
                        />
                        <path
                            d="M783.6 94.4 c-0.3 -0.9 -0.6 -3.7 -0.6 -6.2 0.1 -4.5 0.1 -4.6 1.4 -2.3 l1.4 2.4 0.6 -2.1 c0.6 -1.8 1.5 -2.2 5.1 -2.2 3.5 0 4.3 -0.3 3.9 -1.5 -0.9 -2.3 3.3 -1.9 4.6 0.4 1.3 2.4 1.3 7.8 0.1 8.6 -0.5 0.3 -1.2 -0.4 -1.6 -1.5 -0.5 -1.5 -1 -1.8 -2.4 -1.1 -0.9 0.5 -3.4 0.8 -5.4 0.7 -4 -0.3 -4.2 -0.1 -2.7 3.8 0.9 2.3 0.7 2.6 -1.4 2.6 -1.3 0 -2.7 -0.7 -3 -1.6z"
                        />
                        <path
                            d="M771.6 71.5 c-1.7 -2.6 -2.2 -8.5 -0.7 -8.5 0.5 0 1.2 0.8 1.6 1.8 0.7 1.5 0.9 1.3 1.4 -0.8 0.9 -3.3 4.5 -5 10.1 -4.7 4.4 0.2 4.5 0.3 4.8 4 0.2 2.1 -0.1 3.7 -0.7 3.7 -0.6 0 -1.1 -0.7 -1.1 -1.5 0 -2.1 -3.3 -1.9 -6.3 0.5 -1.4 1.1 -3 2 -3.6 2 -1.3 0 -1.4 0.2 -0.1 3.4 0.9 2.3 0.7 2.6 -1.4 2.6 -1.4 0 -3 -1 -4 -2.5z"
                        />
                        <path
                            d="M757.5 53.6 c-1.5 -1.5 -4.1 -2.6 -7.2 -3 -6.9 -1 -10.3 -2.5 -10.3 -4.7 0 -1.1 0.6 -1.9 1.4 -1.9 0.7 0 1.6 -1.3 1.9 -2.9 0.7 -3.3 2.8 -4.8 8.1 -5.7 3.8 -0.6 4.6 0.5 2 2.7 -2.7 2.2 -4.3 6.3 -3 7.5 0.6 0.5 1.4 1.1 1.9 1.2 0.4 0.1 2 0.8 3.6 1.6 2.8 1.5 2.8 1.5 4.3 -2.2 0.8 -2 2.7 -4.3 4.1 -5.1 2.5 -1.3 2.9 -1.3 5.2 0.9 l2.5 2.3 -4.1 3.1 c-3.3 2.5 -4 3.6 -3.6 5.9 0.3 2.3 0 2.7 -2 2.7 -1.3 0 -3.5 -1.1 -4.8 -2.4z"
                        />
                    </g>
                    <g fill="#f14b4b">
                        <path
                            d="M654.5 541.1 c-11.4 -5.2 -26.2 -29.4 -40 -65.6 -2.1 -5.5 -3.9 -10.1 -4 -10.2 -0.1 -0.2 -1.7 0.2 -3.5 0.7 -12.6 3.6 -54.6 6.5 -73.3 5 -22.2 -1.8 -36.6 -7.7 -48.8 -19.9 -11.8 -11.8 -16.8 -23.9 -19 -45.5 -1.5 -14.7 -0.2 -22.5 5.7 -34.4 7.1 -14.4 21 -27.6 42.9 -40.5 9.6 -5.6 31.9 -15.7 32.5 -14.7 0.5 0.8 61.8 -24.3 72.5 -29.7 13.3 -6.8 22.3 -15.4 27.3 -26.1 2.3 -4.8 2.7 -7.1 2.7 -14.7 0 -10.8 -2.1 -16.1 -9.1 -22.5 -7.3 -6.7 -12.1 -8.4 -25.4 -8.8 -33.8 -1.1 -73.7 18 -84.2 40.4 -2.8 5.9 -3.2 8 -3.2 14.4 0 14.8 8 23.2 27.2 28.9 8.5 2.6 8.9 3.7 3.2 9.3 -4.7 4.4 -6.8 4.7 -18.8 2.3 -11.7 -2.4 -24.8 -9.2 -33.6 -17.6 -21 -19.8 -22.2 -47.1 -3 -67.8 24.8 -26.8 88 -43.9 122.4 -33.2 17.9 5.6 35.6 21.9 44 40.5 4.3 9.4 6.3 18.6 6.4 29.6 0.1 9 -0.1 9.9 -3.6 17.1 -2.5 5.4 -5.8 10 -10.9 15.4 l-7.4 7.7 2.5 2 c8.3 6.7 22.7 10.8 37.8 10.8 12.6 0 21.5 -2 32 -7.1 4.3 -2.1 7.9 -3.6 8.1 -3.3 1 1 -1.9 28.8 -3.1 29.6 -6.2 4 -26.2 5.3 -37.3 2.3 -12.8 -3.3 -25.8 -10.8 -39.7 -22.7 l-5.7 -4.9 -44.8 19.1 c-70.5 30.2 -92.1 41.7 -107.8 57.5 -9.7 9.6 -12 14.6 -12 25.5 0 10.2 2 14.6 9.1 20.8 10 8.9 23.5 11.6 53.9 10.9 22.4 -0.5 32.3 -1.7 47.7 -5.8 l7.7 -2.1 0.6 -5.6 c2.1 -21.1 8.6 -36.6 20.1 -47.7 11.4 -11.1 30.6 -15.1 44.5 -9.2 13.1 5.5 18.2 24.7 11.8 44.4 -5 15.4 -23.5 33.5 -45.7 44.7 -6.5 3.3 -6.5 3.2 1.3 19.1 11.7 24 26.9 37.7 46.3 41.6 7 1.5 7.2 2 4.3 8.5 -3.5 7.7 -9.8 11.5 -21.6 12.8 -3.7 0.4 -6.1 0.1 -9 -1.3z"
                        />
                        <path
                            d="M310.9 539.7 c-2.8 -1.9 -5.6 -6.7 -15.9 -27.3 -12.5 -25 -22.9 -42.1 -32.9 -53.9 -2.9 -3.3 -5.5 -6.1 -5.9 -6.3 -0.4 -0.1 -8.2 3.5 -17.2 8.1 -25.2 12.7 -43.7 18.7 -63.8 20.6 -24.7 2.3 -44.7 -3.6 -58.7 -17.4 -7.2 -7.1 -11.8 -15.7 -14 -26 -5 -23.9 3.8 -40.8 27 -51.5 13.5 -6.3 27.2 -8.4 43.7 -6.9 24.4 2.3 47.7 13.9 66.8 33.3 3.5 3.6 6.9 6.6 7.3 6.6 0.5 0 6.2 -3.4 12.6 -7.6 37.4 -24.6 61 -52.4 71.4 -84.5 5.5 -16.6 7.4 -41 4.2 -53.4 -5.1 -19.8 -20.2 -35.3 -36.3 -37.2 -2.8 -0.3 -5.2 -0.4 -5.2 -0.2 0 0.2 0.4 1.9 0.9 3.6 l0.9 3.2 -24.2 0.3 -24.2 0.3 -12.5 6.2 c-27.9 13.9 -42 31.1 -42.3 51.8 -0.1 6.8 0.3 8.7 2.4 12.5 3 5.3 9.6 10.5 15.3 12.1 6.4 1.7 23.9 0.6 31.4 -2.1 11.7 -4.1 23.2 -13 29.4 -22.8 8.8 -13.8 9.6 -35.3 1.9 -46.2 l-2.1 -2.9 4 -2.1 c4.9 -2.5 7.4 -2.5 12.7 -0.1 8.8 4 14.4 14.5 14.4 27.3 0 22.3 -10.5 42.6 -27.9 54.2 -13.2 8.8 -27.7 12.7 -47.1 12.8 -14.9 0.1 -21.9 -1.4 -33.9 -7.3 -27.6 -13.5 -38 -44.4 -24 -70.9 3.1 -5.8 10.6 -14.4 17.4 -19.8 l4 -3.2 -44.8 0 -44.7 0 -0.4 2.3 c-0.3 1.2 -3.9 51.3 -8.2 111.2 -5.3 76.6 -7.5 111.7 -7 118 0.9 14.5 4.7 24.6 13.1 34.9 l4.4 5.5 -4.1 -1.5 c-16.2 -5.7 -40.7 -26.3 -47.6 -39.9 -4.4 -8.9 -4.5 -5.2 3.9 -117.8 4.3 -58.4 7.9 -107.7 7.9 -109.4 l0 -3.3 -19.4 0 -19.4 0 0.5 -12.3 c0.2 -6.7 0.6 -12.8 0.8 -13.4 0.3 -1 6.4 -1.3 26 -1.3 l25.5 0 -6.4 -6.3 c-15.1 -15.1 -22 -35.9 -19.7 -58.7 1.3 -12.4 2.7 -17.3 8.1 -28.5 13.2 -27.2 41.8 -44.4 78.6 -47.4 31.5 -2.5 58.3 5.3 84.1 24.6 21.3 15.9 40.8 39.2 56.7 67.8 5.7 10.2 16.6 34.4 16.6 36.8 0 1.1 -5.8 4.7 -7.5 4.7 -0.2 0 -3 -5.1 -6.2 -11.2 -12.1 -23.1 -24.5 -40 -41.8 -57.4 -22.7 -22.8 -46.1 -36.5 -70 -40.9 -12.2 -2.3 -33.9 -1.6 -44 1.4 -15 4.5 -31.7 14.7 -40.4 24.8 -5.6 6.5 -10.7 16.6 -12.7 24.9 -1.9 8.1 -1.4 28.7 0.9 36.9 3.5 12.6 10 21.6 18.9 26.1 l4.9 2.5 95.2 -0.1 c103.4 -0.2 99.8 -0.3 115.1 5.4 53.4 20.1 70 95.6 34.3 155.9 -15.7 26.3 -34.9 44.7 -68.4 65.4 -2.3 1.3 -2.2 1.5 6.6 12.1 19.2 23.3 35.9 47.1 41.7 59.7 6.8 14.5 5 24.6 -4.7 26.9 -1.8 0.4 -3.7 -0.1 -6 -1.7z m-134.9 -88.1 c5.8 -1.3 15.2 -4.1 21 -6.1 10.5 -3.7 32.7 -14 36.5 -17 1.9 -1.5 1.9 -1.7 -3.3 -6.4 -6.8 -6.3 -14.4 -10.3 -25.7 -13.7 -11.7 -3.4 -36.1 -4.5 -46.6 -2.1 -14.8 3.5 -27.5 10.4 -32.9 17.9 -8.1 11.2 -4.9 26.3 6.4 29.8 1.7 0.5 10 0.8 18.6 0.5 11.9 -0.3 17.9 -1 26 -2.9z"
                        />
                        <path
                            d="M1056 528.3 c-36.3 -2.5 -65.9 -20 -87.7 -51.9 -17 -24.9 -24.6 -50.2 -24.6 -81.4 0 -26 6.2 -45.8 21.8 -68.9 22.6 -33.9 49.8 -52 78.7 -52.3 7.6 -0.1 9.3 0.3 15 2.9 7.5 3.6 13.3 8.4 19.2 16.1 5.2 6.9 12.3 19.3 16.2 28.5 1.6 3.7 3.1 6.6 3.4 6.4 18 -9.3 34.7 -17.4 42.5 -20.7 12.6 -5.4 31.6 -12.2 32.2 -11.6 0.5 0.5 -1.6 35.9 -2.2 36.4 -0.2 0.2 -6.1 2.3 -13.3 4.7 -7.1 2.4 -17.3 6.6 -22.8 9.3 -10.8 5.5 -23.8 14.2 -25.2 17 -0.5 0.9 -1.2 5.8 -1.5 10.7 -1.1 16.2 -5.7 30.1 -12.2 37.4 -10.3 11.4 -22.8 12.7 -40.4 4 -9.7 -4.8 -17.2 -11.6 -19.1 -17.4 -2.7 -8.3 3.2 -20.9 14.8 -31.7 3.2 -2.9 13.1 -11.1 21.9 -18.2 13.3 -10.5 16.1 -13.2 15.3 -14.6 -2 -3.8 -9.1 -12.5 -12.3 -15.1 -7.7 -6.3 -13.3 -8.3 -24.8 -8.7 -12 -0.5 -19.4 1 -29.8 5.8 -20.5 9.6 -42.6 34.4 -53 59.7 -9.8 23.8 -10.6 52.7 -2.1 73.9 10.6 26.6 33.6 44.8 62.4 49.4 9.7 1.6 34 0.8 42.1 -1.4 13.5 -3.6 28.8 -13.6 34.8 -22.5 0.9 -1.4 1.9 -2.2 2.2 -1.9 1.3 1.3 3.5 16.8 3.5 24.9 0 10 -0.9 12.6 -6.2 17.6 -9 8.7 -31.2 14.9 -48.8 13.6z"
                        />
                        <path
                            d="M426.5 510.5 c-11.5 -4.7 -29.9 -19.1 -39.1 -30.6 -7.2 -8.9 -10.6 -16.1 -11.1 -23.4 -0.4 -4.9 12.2 -189.5 14.2 -208.2 l0.5 -5.3 -19 0 -19 0 0 -5.2 c0 -2.9 0.3 -9 0.7 -13.5 l0.6 -8.3 68.5 0 68.5 0 -0.7 6.1 c-0.3 3.4 -0.6 9.5 -0.6 13.5 l0 7.4 -31.5 0 -31.5 0 0 2.3 c0 1.2 -3.4 52.2 -7.5 113.2 -4.2 61.3 -7.3 113.2 -7 116 1.6 13.3 6.2 23.3 14.8 32.2 3.3 3.5 5.8 6.3 5.6 6.3 -0.2 0 -3.1 -1.2 -6.4 -2.5z"
                        />
                        <path
                            d="M806 508.8 c-19.7 -9.9 -42.3 -32.3 -46 -45.6 -1.6 -6 -1.3 -12.2 6 -115.9 3.9 -54.6 7 -100.4 7 -101.8 l0 -2.5 -35 0 -35 0 0 -13.5 0 -13.5 74.8 0 c64.7 0 75.3 0.2 77.9 1.5 4 2 13.8 3.9 15.8 3.1 1.1 -0.4 1.4 -1.2 1 -2.6 -0.6 -2 -0.5 -2 339.9 -2 l340.6 0 0 5.3 c0 2.8 -0.3 8.9 -0.7 13.5 l-0.6 8.2 -21.8 0 c-20.6 0 -21.9 0.1 -21.9 1.8 0 1.1 -3.4 50.2 -7.5 109.3 -4.1 59.1 -7.5 112.6 -7.5 118.9 0 13.3 1.7 22.6 5.5 30 1.4 2.9 2.4 5.4 2.2 5.7 -0.7 0.7 -12.1 -5.3 -20.8 -10.8 -8.9 -5.7 -18.6 -15.6 -21.7 -22 -3.8 -8 -4.1 -12.3 -2.1 -36.2 1 -12.2 1.9 -22.8 1.9 -23.6 0 -0.7 -4.8 3.2 -10.6 8.9 -13.9 13.4 -25.4 21.8 -38.9 28.5 -19.5 9.6 -37.4 13.2 -57.7 11.4 -40.1 -3.4 -69.6 -28.1 -80 -66.7 -2.6 -9.8 -3.9 -46.4 -1.8 -52.8 2 -6 5.7 -10.1 11.8 -13.1 l5.7 -2.8 29.5 -0.6 c33.2 -0.6 34.8 -0.9 46.9 -9 7.1 -4.7 11.1 -9.5 14.8 -17.6 2.4 -5.1 2.7 -7 2.8 -16.3 0 -8.4 -0.5 -11.8 -2.3 -17.3 -2.9 -8.3 -9 -17.6 -14.6 -22.2 l-4.3 -3.5 -61.1 0 -61.1 0 -0.5 5.3 c-1.3 11.1 -14.6 209.6 -14.6 216.5 0 16.7 5.9 32.9 15.7 42.7 2.9 3 5 5.5 4.5 5.5 -2.2 0 -18.5 -9.1 -24.2 -13.5 -15.5 -11.9 -28.4 -27 -31 -36.3 -1.6 -6 -1.3 -12.2 6 -115.9 3.9 -54.6 7 -100.4 7 -101.8 l0 -2.5 -141.4 0 -141.5 0 -0.5 5.2 c-1.3 11.2 -14.6 209.7 -14.6 216.6 0 16.7 5.9 32.9 15.7 42.7 2.9 3 5 5.5 4.5 5.5 -2.2 0 -18.5 -9.1 -24.2 -13.5 -15.5 -11.9 -28.4 -27 -31 -36.3 -1.6 -6 -1.3 -12.2 6 -115.9 3.9 -54.6 7 -100.4 7 -101.8 l0 -2.5 -34.9 0 -35 0 -0.5 5.3 c-1.3 11.1 -14.6 209.6 -14.6 216.5 0 16.7 5.9 32.9 15.7 42.7 2.9 3 5 5.5 4.5 5.5 -0.4 0 -4.6 -1.9 -9.2 -4.2z m568.1 -78.6 c17.4 -4.7 32.7 -12.3 46.2 -23.1 14.7 -11.7 30.8 -31.4 39.2 -48.1 l3.3 -6.6 3.6 -51.5 c2 -28.2 3.6 -52.9 3.6 -54.6 l0 -3.3 -45 0 -44.9 0 7 7.1 c16.4 16.8 24.9 36 25.1 56.4 0.1 7.1 -0.4 10.2 -2.1 14.8 -4.8 12.2 -14.9 21.5 -33.6 30.7 -19.8 9.8 -35.6 12.9 -65.7 13 -14.2 0 -14.7 0.1 -17.7 2.6 -3.7 3 -5.1 7.7 -5.1 16.4 0 13.6 4.6 24.4 14.4 33.9 6.8 6.4 15.6 11.4 24.4 13.6 8.5 2.2 37.1 1.4 47.3 -1.3z"
                        />
                    </g>
                    <g fill="#bd8101">
                        <path
                            d="M834.9 203.5 c-1.8 -1 -2.9 -2.6 -3.3 -5 -0.8 -4.3 0.4 -6.9 4.4 -8.5 2.5 -1 3.4 -1 5.5 0.4 1.4 0.9 2.5 2.2 2.6 2.9 0 0.6 0.2 2.2 0.3 3.5 0.2 1.2 -0.1 2.2 -0.5 2.2 -0.4 0 -0.6 0.8 -0.5 1.7 0 1.2 -0.7 1.9 -2.1 2.1 -1.3 0.2 -2.3 0.8 -2.3 1.3 0 1.2 -1 1.1 -4.1 -0.6z"
                        />
                    </g>
                    <g fill="#4b4b4b">
                        <path
                            d="M876.5 98.7 c-11.5 -3.9 -21.1 -7.5 -21.3 -7.9 -0.2 -0.4 -1.3 -0.8 -2.5 -0.8 -2.9 0 -46.1 -14 -46.5 -15.1 -0.2 -0.5 -1.3 -0.9 -2.4 -0.9 -3 0 -9.8 -2.2 -9.8 -3.2 0 -0.4 -1 -0.8 -2.3 -0.8 -1.8 0 -3 -1.2 -5 -5.2 -1.5 -2.8 -2.4 -5.4 -2.2 -5.7 0.3 -0.3 4.5 0.8 9.3 2.4 4.8 1.6 9.2 3 9.7 3.2 0.6 0.1 7.5 2.4 15.5 5.1 16.6 5.6 44 14.5 45.5 14.9 0.6 0.1 3.5 1.1 6.5 2.1 3 1.1 13.5 4.6 23.3 7.7 17.3 5.6 20.9 7.7 15.5 9 -6.7 1.5 -11.4 2.4 -11.8 2.4 -0.3 0 -9.9 -3.3 -21.5 -7.2z"
                        />
                        <path
                            d="M388.8 78.9 c-1.6 -0.6 -2.8 -1.4 -2.8 -1.9 0 -0.8 18.4 -5.5 29.4 -7.6 1.6 -0.2 3.2 -0.7 3.6 -0.9 0.4 -0.2 2 -0.6 3.6 -0.9 1.6 -0.3 6.3 -1.4 10.4 -2.5 6.3 -1.7 21.8 -5.3 28.3 -6.6 1 -0.2 2.7 -0.7 3.7 -1 1.8 -0.6 4.1 -1.1 9.2 -2 1.5 -0.3 3.8 -0.9 5.2 -1.5 1.5 -0.5 2.6 -0.8 2.6 -0.5 0 0.2 1.8 -0.2 4 -1 2.2 -0.8 4.3 -1.4 4.5 -1.4 0.9 0.1 6.4 -1.2 21.5 -4.8 14.8 -3.6 16.4 -3.9 21.4 -4.9 1.6 -0.2 3.2 -0.7 3.6 -0.9 0.6 -0.4 2 -0.7 9.2 -2 1.5 -0.3 3.9 -1 5.3 -1.5 1.4 -0.5 3.8 -1.2 5.3 -1.5 1.5 -0.3 3.6 -0.7 4.7 -0.9 1.1 -0.3 5.2 -1.1 9 -2 3.9 -0.8 9.8 -2.2 13.2 -3.1 6.2 -1.6 8.3 -2.1 13.5 -3 1.5 -0.3 3.7 -0.9 5 -1.4 1.3 -0.5 2.6 -0.9 3.1 -1 0.4 0 0.9 -0.2 1.2 -0.2 0.3 -0.1 1.4 -0.3 2.5 -0.4 1.1 -0.1 2.1 -0.3 2.3 -0.4 0.1 -0.2 1.1 -0.4 2.2 -0.7 1.1 -0.2 9.4 -2.1 18.5 -4.3 l16.4 -3.9 6.1 1.9 c3.3 1 6.3 1.8 6.8 1.8 0.4 0.1 2.1 0.8 3.7 1.6 1.7 0.9 3 1.4 3 1.1 0 -0.2 2.4 0.5 5.3 1.6 4.3 1.6 13.1 4.4 19.7 6.3 0.8 0.2 3.9 1.3 6.8 2.4 2.8 1 5.2 1.7 5.2 1.5 0 -0.3 1.3 0.2 3 1.1 1.6 0.9 3 1.4 3 1.1 0 -0.2 2.4 0.5 5.3 1.5 2.8 1.1 5.9 2.2 6.7 2.4 0.8 0.2 3.5 1.1 6 2 2.5 0.9 5.7 1.8 7.2 2 1.6 0.2 4.7 1.3 7.1 2.3 2.3 1 6 2.2 8.2 2.6 5.3 1 9.2 3.2 12.6 6.8 2.3 2.6 2.5 3.3 1.4 4.4 -0.7 0.8 -2.5 1.4 -3.9 1.4 -3.2 0 -25 -7 -25.4 -8.2 -0.2 -0.4 -1.3 -0.8 -2.4 -0.8 -2.6 0 -39 -11.8 -40.2 -13.1 -0.6 -0.5 -1.9 -0.9 -3 -0.9 -1.1 0 -11.7 -3.2 -23.5 -7.1 -11.9 -4 -22 -7.2 -22.6 -7.2 -0.5 0 -5.9 1.2 -12 2.7 -8.9 2.1 -26.7 6.2 -45.2 10.3 -1.3 0.3 -2.3 0.9 -2.3 1.4 0 0.5 -1.9 0.9 -4.2 0.9 -4 0 -15.2 2.3 -19.3 3.9 -1.1 0.5 -5.8 1.6 -10.5 2.5 -15.1 2.8 -22.5 4.6 -22.8 5.6 -0.2 0.6 -1.9 1 -3.8 1 -2.9 0 -12.8 2 -36.4 7.5 -13.5 3.1 -19 4.4 -26 5.9 -4.1 0.9 -7.7 2 -8 2.5 -0.3 0.5 -2.7 1.1 -5.5 1.3 -5.5 0.5 -18.5 3.3 -37 7.8 -15 3.7 -19.3 4.2 -22.7 2.9z"
                        />
                    </g>
                    <g fill="#363636">
                        <path
                            d="M508.4 175.8 c0.3 -2.4 0.8 -14.6 1.1 -27.3 0.4 -12.6 0.7 -23.2 0.7 -23.5 0.3 -2.9 -0.5 -5 -2.1 -5.5 -1.7 -0.5 -1.8 -1.5 -1.4 -14.8 0.3 -8.7 1 -14.6 1.7 -15.4 1.5 -1.5 24.1 -8.7 38.9 -12.3 15.2 -3.8 26.2 -4.7 62.6 -5.6 l28.9 -0.7 2.1 6.9 c2.4 7.7 6.3 26.5 8.2 39.4 1.4 9.2 1.8 46.5 0.5 47.7 -0.4 0.5 -7.8 0.9 -16.4 0.9 -34.3 0.3 -76.8 1.8 -83.3 2.9 -2 0.3 -5.2 0.7 -7.1 0.9 -1.9 0.2 -4.6 1 -5.9 1.9 -1.3 0.8 -4.2 1.8 -6.4 2.1 -4.7 0.8 -11.9 3.2 -15.7 5.2 -1.4 0.8 -3.6 1.4 -4.8 1.4 -1.9 0 -2.1 -0.4 -1.6 -4.2z"
                        />
                        <path
                            d="M844.3 87.5 c-32.8 -10.7 -55.4 -18.6 -55.8 -19.4 -0.7 -1.8 1.3 -4 2.3 -2.6 0.4 0.6 1.8 1.1 3.2 1.3 1.4 0.1 2.6 0.7 2.8 1.2 0.2 0.5 1 0.6 1.8 0.3 0.8 -0.3 1.4 0 1.4 0.6 0 0.6 0.7 0.8 1.5 0.5 0.8 -0.4 1.5 -0.2 1.5 0.2 0 0.5 1.2 1 2.7 1.1 1.5 0 2.9 0.6 3.1 1.2 0.2 0.5 1 0.7 1.8 0.4 0.8 -0.3 1.4 0 1.4 0.7 0 0.7 0.7 1 1.5 0.6 0.8 -0.3 1.5 -0.1 1.5 0.4 0 0.5 0.6 0.7 1.4 0.4 0.8 -0.3 1.7 0 2.1 0.5 0.3 0.6 1.1 0.9 1.6 0.6 0.5 -0.4 0.9 -0.2 0.9 0.4 0 0.6 0.7 0.8 1.5 0.5 0.8 -0.4 1.5 -0.1 1.5 0.6 0 0.7 0.7 1 1.5 0.6 0.8 -0.3 1.5 -0.1 1.5 0.4 0 0.5 0.7 0.7 1.5 0.4 0.8 -0.4 1.5 -0.1 1.5 0.6 0 0.7 0.7 1 1.5 0.6 0.8 -0.3 1.5 -0.1 1.5 0.3 0 0.5 0.9 0.7 2 0.4 1.2 -0.3 2 0 2 0.6 0 0.7 0.4 1 0.9 0.6 0.5 -0.3 1.2 -0.1 1.6 0.4 0.3 0.6 1.2 0.8 2 0.4 0.8 -0.3 1.5 0 1.5 0.7 0 0.6 0.5 0.8 1 0.5 0.6 -0.3 1 -0.1 1 0.5 0 0.7 0.7 1 1.5 0.7 0.8 -0.4 1.7 -0.2 2 0.3 0.3 0.5 1.2 0.7 2 0.3 0.8 -0.3 1.5 -0.1 1.5 0.3 0 0.5 1.2 1 2.7 1.1 1.5 0 2.9 0.6 3.1 1.2 0.2 0.5 0.9 0.8 1.7 0.5 0.7 -0.3 1.6 0 2 0.5 0.3 0.6 1.1 0.9 1.6 0.6 0.5 -0.4 0.9 -0.2 0.9 0.4 0 0.6 0.7 0.8 1.5 0.5 0.8 -0.4 1.5 -0.1 1.5 0.6 0 0.7 0.7 1 1.5 0.6 0.8 -0.3 1.5 -0.1 1.5 0.4 0 0.5 0.7 0.7 1.5 0.4 0.8 -0.4 1.5 -0.1 1.5 0.6 0 0.7 0.7 1 1.5 0.6 0.8 -0.3 1.5 -0.1 1.5 0.4 0 0.5 0.6 0.7 1.4 0.4 0.8 -0.3 1.7 0 2.1 0.5 0.3 0.6 1.1 0.9 1.6 0.6 0.5 -0.4 0.9 -0.2 0.9 0.4 0 0.6 0.7 0.8 1.5 0.5 0.8 -0.4 1.5 -0.1 1.5 0.6 0 0.7 0.7 1 1.5 0.6 0.8 -0.3 1.5 -0.1 1.5 0.5 0 0.6 0.7 0.9 1.5 0.5 0.8 -0.3 1.5 -0.1 1.5 0.5 0 0.6 0.7 0.9 1.5 0.5 0.8 -0.3 1.5 -0.1 1.5 0.5 0 0.6 0.7 0.9 1.5 0.5 0.8 -0.3 1.5 -0.1 1.5 0.5 0 0.6 0.7 0.9 1.5 0.5 0.8 -0.3 1.5 -0.1 1.5 0.5 0 0.6 0.6 0.9 1.3 0.6 0.6 -0.2 1.7 0.1 2.4 0.8 3.7 4 -7.7 0.9 -59.4 -16z"
                        />
                        <path
                            d="M392.2 79.9 c-3.7 -1.4 -2.5 -2.7 3.6 -3.9 3.1 -0.6 7.1 -1.6 8.8 -2.1 1.7 -0.5 4 -1.1 5 -1.4 11.3 -2.3 27.1 -5.8 32.2 -7.1 3.5 -0.8 7 -1.3 7.8 -1 0.8 0.3 1.4 0.1 1.4 -0.4 0 -0.4 1.5 -1.1 3.3 -1.5 1.7 -0.4 7 -1.6 11.7 -2.7 4.7 -1.1 9.2 -2.1 10 -2.3 5.9 -1.3 16.8 -3.8 30.7 -6.9 9 -2.1 16.7 -3.5 17.2 -3.2 0.5 0.4 1.1 0.2 1.3 -0.4 0.3 -1 7.7 -2.8 22.8 -5.6 4.7 -0.9 9.4 -2 10.5 -2.5 3.6 -1.4 15.9 -4.1 19.7 -4.3 2.1 0 3.8 -0.4 3.8 -0.7 0 -0.4 1 -0.9 2.3 -1.2 1.2 -0.2 6.5 -1.4 11.7 -2.7 5.2 -1.2 10.6 -2.4 12 -2.6 1.4 -0.3 3.3 -0.7 4.2 -1 0.9 -0.3 2.5 -0.6 3.5 -0.9 1.6 -0.3 18.3 -4.2 28.1 -6.5 1.8 -0.4 3.5 -0.4 3.8 0.1 0.3 0.5 1 0.7 1.5 0.4 0.5 -0.4 0.9 -0.1 0.9 0.5 0 0.7 0.7 1 1.5 0.7 0.8 -0.4 1.7 -0.2 2 0.4 0.4 0.5 1.1 0.6 1.7 0.3 0.6 -0.4 1.4 -0.1 1.8 0.6 0.4 0.7 1.9 1.2 3.4 1.2 1.4 0 2.6 0.4 2.6 0.9 0 0.5 0.7 0.6 1.5 0.3 0.8 -0.4 1.5 -0.1 1.5 0.5 0 0.6 0.7 0.8 1.5 0.5 0.8 -0.4 1.5 -0.1 1.5 0.6 0 0.7 0.7 1 1.5 0.6 0.8 -0.3 1.5 -0.1 1.5 0.4 0 0.5 0.7 0.7 1.5 0.4 0.8 -0.4 1.5 -0.1 1.5 0.6 0 0.7 0.7 1 1.5 0.6 0.8 -0.3 1.5 -0.1 1.5 0.4 0 0.5 0.7 0.7 1.5 0.4 0.8 -0.4 1.5 -0.1 1.5 0.6 0 0.7 0.7 1 1.5 0.6 0.8 -0.3 1.5 -0.1 1.5 0.4 0 0.5 0.7 0.7 1.5 0.4 0.8 -0.4 1.5 -0.1 1.5 0.6 0 0.7 0.7 1 1.5 0.6 0.8 -0.3 1.5 -0.1 1.5 0.5 0 0.6 0.7 0.8 1.6 0.5 0.8 -0.3 2.5 0 3.7 0.6 1.2 0.7 2.5 1.1 3 1 0.4 -0.1 0.7 0.3 0.7 0.9 0 0.6 0.7 0.9 1.5 0.6 0.8 -0.4 1.7 -0.2 2 0.4 0.4 0.5 1.1 0.7 1.6 0.4 0.5 -0.4 0.9 -0.1 0.9 0.5 0 0.7 0.7 1 1.5 0.7 0.8 -0.4 1.7 -0.2 2 0.3 0.3 0.5 1.2 0.7 2 0.3 0.8 -0.3 1.5 0 1.5 0.6 0 0.6 0.7 0.8 1.5 0.5 0.8 -0.4 1.5 -0.1 1.5 0.5 0 0.6 0.7 0.8 1.5 0.5 0.8 -0.4 1.5 -0.1 1.5 0.6 0 0.6 0.4 0.9 0.9 0.5 0.5 -0.3 1.2 -0.1 1.6 0.4 0.3 0.6 1.2 0.8 2 0.4 0.8 -0.3 1.5 0 1.5 0.6 0 0.6 0.7 0.8 1.5 0.5 0.8 -0.4 1.5 -0.1 1.5 0.5 0 0.6 0.7 0.8 1.5 0.5 0.8 -0.4 1.5 -0.1 1.5 0.5 0 0.6 0.7 0.8 1.5 0.5 0.8 -0.4 1.5 -0.2 1.5 0.4 0 0.6 0.8 0.8 1.9 0.5 1 -0.2 2.4 0.2 3.2 1 0.8 0.7 2 1.2 2.7 0.9 0.6 -0.2 1.2 0.2 1.2 0.8 0 0.7 0.7 1 1.5 0.6 0.8 -0.3 1.5 -0.1 1.5 0.4 0 0.5 0.7 0.7 1.5 0.4 0.8 -0.4 1.5 -0.1 1.5 0.6 0 0.7 0.7 1 1.5 0.7 0.8 -0.4 1.7 -0.2 2 0.4 0.4 0.5 1.1 0.7 1.6 0.4 0.5 -0.4 0.9 -0.1 0.9 0.5 0 0.6 0.5 0.8 1 0.5 0.6 -0.4 1.7 -0.1 2.5 0.5 0.8 0.7 1.5 0.9 1.5 0.4 0 -0.5 0.5 -0.2 1.1 0.6 0.8 1.1 1.2 1.2 1.6 0.3 0.8 -2.1 2.7 -1.5 6.3 1.9 l3.3 3.3 -2.5 0.3 c-1.4 0.2 -10.5 -2.4 -20.4 -5.7 -9.8 -3.4 -18.9 -6.1 -20.1 -6.1 -1.2 0 -2.5 -0.4 -2.8 -1 -0.3 -0.5 -1.7 -1 -3 -1 -1.3 0 -2.7 -0.5 -3 -1 -0.3 -0.6 -1.7 -1 -3 -1 -1.3 0 -2.7 -0.5 -3 -1 -0.3 -0.6 -1.6 -1 -2.9 -1 -1.2 0 -2.6 -0.4 -3.2 -0.9 -1.4 -1.3 -31.5 -11.1 -34.1 -11.1 -1.2 0 -2.5 -0.5 -2.8 -1 -0.3 -0.6 -1.7 -1 -3 -1 -1.3 0 -2.6 -0.4 -3 -0.9 -0.3 -0.5 -1.9 -1.2 -3.5 -1.6 -1.7 -0.4 -3 -1.1 -3 -1.6 0 -0.5 -1.1 -0.9 -2.4 -0.9 -1.4 0 -3.7 -0.5 -5.3 -1.1 -2.7 -1 -10.2 0.3 -27.8 4.8 -3.3 0.9 -7.7 1.8 -9.8 2.1 -2 0.2 -4 0.8 -4.3 1.3 -0.3 0.5 -1.5 0.9 -2.8 0.9 -1.3 0 -5.8 0.9 -10.2 2.1 -4.3 1.1 -11.3 2.6 -15.4 3.3 -4.1 0.8 -10 2.1 -13 2.9 -3 0.8 -10.4 2.5 -16.5 3.7 -6 1.1 -13.7 3 -17 4 -3.3 1 -9.8 2.6 -14.5 3.5 -11.6 2.3 -29.5 6.3 -35.5 8 -2.7 0.7 -9.9 2.4 -16 3.6 -6 1.2 -11.4 2.5 -12 2.9 -0.5 0.4 -2.8 1 -5 1.3 -2.2 0.3 -8.3 1.5 -13.5 2.7 -5.2 1.1 -11.1 2.3 -13 2.7 -1.9 0.3 -4.3 1 -5.3 1.5 -1 0.5 -4.1 1.3 -7 1.8 -2.9 0.6 -7.9 1.6 -11.3 2.3 -3.5 0.8 -6.9 1 -8.2 0.6z"
                        />
                    </g>
                    <g fill="#292929">
                        <path
                            d="M762 185 c-1.4 -0.4 -5.4 -2.2 -9 -3.9 -3.6 -1.7 -7 -3.1 -7.5 -3.1 -0.6 0 -1.6 -0.9 -2.2 -1.9 -1.3 -2 -4.2 -2.7 -26.3 -5.6 -1.4 -0.2 -3.8 -0.6 -5.5 -0.9 -1.6 -0.2 -6.6 -0.8 -11 -1.1 -4.4 -0.4 -9.3 -0.9 -11 -1.1 -8.1 -0.8 -23.1 -1.7 -32.5 -1.8 l-10.5 -0.1 0.5 -7.5 c1.6 -23.8 -2 -54.1 -9.1 -77.4 l-2.1 -6.9 -25.6 0.7 c-33.9 0.9 -45.2 2 -59.9 5.6 -13.7 3.3 -37.1 10.7 -39 12.2 -0.9 0.7 -1.3 4.3 -1.3 11.3 0 13.6 -0.6 16.4 -3.2 15.7 -2 -0.5 -2.1 -1 -1.6 -15.4 0.3 -8.3 1 -15.4 1.6 -16 1.5 -1.5 30.8 -10.4 43.7 -13.3 6 -1.3 17.3 -2.9 25 -3.5 21.2 -1.5 65.1 -1.7 79.5 -0.3 6.9 0.7 19.6 1.7 28.4 2.3 37.4 2.5 62.6 7.1 80.1 14.7 l9 3.8 0 17.4 c0 13.6 -0.3 17.4 -1.4 18 -1.7 1 -1.7 1 -2.5 30.1 -0.4 13.5 -1 25.5 -1.3 26.8 -0.5 2.3 -1.3 2.5 -5.3 1.2z"
                        />
                        <path
                            d="M508.7 181.3 c-1.6 -1.5 -0.5 -4 2.6 -5.5 9.2 -4.5 26.7 -8.4 26.7 -5.9 0 1.4 -4.1 3.2 -15.3 6.7 -4.9 1.5 -9.5 3.3 -10.2 4 -1.5 1.5 -2.8 1.8 -3.8 0.7z"
                        />
                        <path
                            d="M880 99 c0 -0.5 -1.3 -1 -3 -1 -1.6 0 -3 -0.4 -3 -1 0 -0.5 -1.3 -1 -3 -1 -1.6 0 -3 -0.4 -3 -1 0 -0.5 -1.3 -1 -3 -1 -1.6 0 -3 -0.4 -3 -1 0 -0.5 -1 -1 -2.2 -1 -1.2 0 -4.5 -0.8 -7.5 -1.7 -3.8 -1.2 -5.3 -2.2 -5.3 -3.5 0 -1.3 0.6 -1.7 2.3 -1.4 1.2 0.3 2.2 0.5 2.2 0.6 0 0.1 1.1 0.3 2.4 0.6 1.4 0.2 3 0.9 3.8 1.5 0.7 0.6 1.3 0.9 1.3 0.5 0 -0.4 1.4 0 3 0.9 1.7 0.9 3 1.3 3 0.9 0 -0.4 0.6 -0.1 1.3 0.5 0.8 0.6 2.2 1.2 3.3 1.4 1 0.1 2.4 0.6 3 0.9 0.6 0.4 2.2 0.9 3.6 1.2 1.5 0.2 3.5 0.9 4.5 1.4 1 0.6 2 1 2.3 1 0.3 0.1 1.3 0.4 2.3 0.7 2.9 1.2 1.9 2.5 -1.8 2.5 -1.9 0 -3.5 -0.4 -3.5 -1z"
                        />
                        <path
                            d="M831 83 c0 -0.5 -1.3 -1 -3 -1 -1.6 0 -3 -0.4 -3 -1 0 -0.5 -1.3 -1 -3 -1 -1.6 0 -3 -0.4 -3 -1 0 -0.5 -1.3 -1 -3 -1 -1.6 0 -3 -0.4 -3 -1 0 -0.5 -1 -1 -2.2 -1 -1.2 0 -5.9 -1.2 -10.5 -2.7 -6.3 -2.1 -8.3 -3.1 -8.3 -4.5 0 -1.8 3 -2.5 4.4 -1 0.4 0.4 1.2 0.8 1.7 0.8 0.5 0.1 1.1 0.3 1.4 0.4 0.3 0.1 1 0.4 1.5 0.5 0.6 0.1 1.1 0.3 1.3 0.4 0.1 0.2 1.3 0.4 2.6 0.7 1.4 0.2 3 0.9 3.8 1.5 0.7 0.6 1.3 0.8 1.3 0.4 0 -0.4 0.6 -0.3 1.3 0.3 0.7 0.6 2.4 1.3 3.9 1.6 1.4 0.2 3.6 0.9 4.7 1.6 1.2 0.6 2.1 0.8 2.1 0.4 0 -0.3 0.6 -0.1 1.3 0.5 0.8 0.6 2.2 1.2 3.3 1.4 1 0.1 2.4 0.6 3 0.9 0.6 0.4 2.2 0.9 3.7 1.2 5.7 1 6.5 3.6 1.2 3.6 -1.9 0 -3.5 -0.4 -3.5 -1z"
                        />
                        <path
                            d="M392.8 80.3 c-2.1 -0.5 -2.4 -2.2 -0.5 -2.7 2 -0.7 15 -3.5 18.2 -4 1.6 -0.3 4.1 -1 5.5 -1.5 1.4 -0.5 5 -1.4 8 -2 3 -0.6 8.7 -1.9 12.5 -2.7 3.9 -0.9 8.6 -1.8 10.5 -2 1.9 -0.3 4.4 -0.9 5.5 -1.4 2.1 -0.9 17.9 -4.6 23.1 -5.3 1.8 -0.3 4.7 -1 6.5 -1.6 4 -1.3 21.5 -5.2 34.4 -7.7 5 -0.9 10.8 -2.3 13 -3.1 2.2 -0.8 9.4 -2.6 16 -3.9 13.6 -2.9 13.4 -2.8 19.5 -4.4 2.5 -0.7 7.7 -1.8 11.5 -2.5 3.9 -0.7 7 -1.4 7 -1.5 0 -0.1 0.9 -0.4 2 -0.5 1.1 -0.1 4 -0.8 6.5 -1.5 4.4 -1.2 8.1 -2 11 -2.5 0.8 -0.1 2.2 -0.5 3 -0.8 0.8 -0.3 2.9 -0.8 4.5 -1 1.7 -0.3 6.2 -1.2 10 -2.2 24.9 -6.1 26.7 -6.5 28.6 -5.5 4.4 2.4 4.3 2.4 -27.6 9.5 -8.2 1.8 -24.7 5.6 -36.5 8.3 -11.8 2.8 -28.7 6.7 -37.5 8.7 -8.8 2 -19.6 4.4 -24 5.5 -36.6 8.6 -65.9 15 -68.9 15 -2 0 -3.6 0.4 -3.6 0.8 0 0.5 -3.3 1.6 -7.2 2.5 -4 0.9 -16.1 3.7 -26.9 6.2 -19.5 4.5 -20.8 4.7 -24.1 3.8z"
                        />
                        <path
                            d="M752 56 c0 -1.6 0.5 -1.9 2.5 -1.6 5.5 1 6.2 3.6 1 3.6 -2.8 0 -3.5 -0.4 -3.5 -2z"
                        />
                        <path
                            d="M743 54.1 c0 -0.5 -2.2 -1.1 -5 -1.5 -4.1 -0.5 -5 -1 -5 -2.6 0 -1.4 0.7 -2 2.3 -2 1.3 0 2.7 0.3 3.1 0.8 0.4 0.4 1.1 0.7 1.4 0.8 0.4 0 1.5 0.4 2.4 0.8 0.9 0.4 2.2 0.9 3 1 5.4 1.1 6.3 3.6 1.3 3.6 -1.9 0 -3.5 -0.4 -3.5 -0.9z"
                        />
                        <path
                            d="M690 36 c0 -2.2 2.8 -2.7 6.1 -1 3.1 1.7 2.2 3 -2.1 3 -3.3 0 -4 -0.3 -4 -2z"
                        />
                        <path
                            d="M682 34 c0 -0.5 -1.3 -1 -3 -1 -2.3 0 -3 -0.4 -3 -2 0 -2 1.5 -2.2 5.2 -0.6 0.9 0.4 2.2 0.9 3 1 5.4 1.1 6.3 3.6 1.3 3.6 -1.9 0 -3.5 -0.4 -3.5 -1z"
                        />
                    </g>
                    <g fill="#131313">
                        <path
                            d="M752.9 188.6 c-3.2 -3.4 -9.9 -12.9 -9.9 -13.9 0 -1.6 6 0.1 13.9 3.8 4 1.9 7.9 3.5 8.7 3.5 1.5 0 1.9 3.7 0.6 5.6 -0.8 1.3 -4.5 2.6 -8.5 2.9 -1.9 0.2 -3.5 -0.5 -4.8 -1.9z"
                        />
                        <path
                            d="M511.4 185.2 c-2.9 -2.3 -3.8 -5.6 -2 -7.4 3.2 -3.3 27.6 -9.6 27.6 -7.2 0 1 -21.3 16.4 -22.6 16.4 -0.5 0 -1.9 -0.8 -3 -1.8z"
                        />
                        <path
                            d="M769.4 125.9 c-0.3 -0.6 -0.5 -7.9 -0.3 -16.2 l0.4 -15.2 -9 -3.8 c-19.8 -8.6 -52.5 -13.8 -101.5 -16.1 -5.2 -0.3 -11.1 -0.8 -13 -1.2 -4.9 -1 -50.7 -0.6 -67.5 0.6 -7.7 0.6 -19 2.2 -25 3.5 -12.7 2.9 -42.2 11.8 -43.7 13.3 -0.5 0.5 -1.2 7.1 -1.5 14.7 -0.6 13.3 -0.7 13.7 -2.7 13.2 -1.9 -0.5 -37.8 -12.8 -62.1 -21.3 -5.5 -1.9 -10.7 -3.6 -11.5 -3.9 -0.8 -0.2 -4 -1.3 -7 -2.5 -3 -1.2 -5.9 -2.2 -6.5 -2.3 -0.5 -0.2 -2.3 -0.8 -4 -1.4 -1.6 -0.7 -6.9 -2.4 -11.7 -3.8 -7.8 -2.4 -10.7 -3.9 -9.7 -5 0.2 -0.2 9.4 -2.4 20.4 -4.9 11 -2.6 24.7 -5.7 30.5 -7.1 5.8 -1.4 23.6 -5.4 39.5 -9 16 -3.7 32.6 -7.5 37 -8.5 4.4 -1.1 15.2 -3.5 24 -5.5 8.8 -2 28.4 -6.5 43.5 -10 15.1 -3.5 34.9 -8 43.9 -10.1 l16.4 -3.7 13.6 4.5 c7.5 2.5 30.5 10.1 51.1 16.8 20.6 6.7 41.7 13.6 46.9 15.4 l9.4 3.1 4.9 8 c6.5 10.6 14.2 26.6 16.3 34 1 3.3 2.8 9.1 4.1 12.9 2.9 8.5 2.9 8.2 0.2 8.3 -2.1 0 -3.6 0.3 -10.8 1.8 -1.4 0.3 -4.1 0.8 -6 1 -1.9 0.3 -4.5 0.8 -5.7 1 -1.2 0.3 -2.5 0 -2.9 -0.6z"
                        />
                        <path
                            d="M806.6 116.8 c-1.2 -7.3 -8.7 -28.8 -13.7 -39.4 -2.7 -5.7 -4.9 -10.6 -4.9 -10.9 0 -0.9 4.1 0.3 32.5 9.7 60.9 20 82 27.1 82.8 27.8 0.7 0.7 -4.4 1.8 -15.3 3.5 -5.4 0.8 -9.6 1.5 -12 1.9 -9.4 1.7 -15.6 2.8 -18.3 3.1 -1.8 0.2 -4.5 0.5 -6.2 0.8 -10.6 1.9 -22.4 3.9 -24.5 4.2 -1.4 0.2 -4.1 0.6 -6 0.9 -6 0.8 -11.5 1.7 -12.6 2.1 -0.7 0.2 -1.4 -1.4 -1.8 -3.7z"
                        />
                    </g>
                </svg>